<?xml version="1.0" encoding="utf-8"?>
<!DOCTYPE svg PUBLIC "-//W3C//DTD SVG 1.1//EN" "http://www.w3.org/Graphics/SVG/1.1/DTD/svg11.dtd">
<svg xmlns="http://www.w3.org/2000/svg" xmlns:xlink="http://www.w3.org/1999/xlink" version="1.1" baseProfile="full" width="897.604" height="273.823" viewBox="0 0 897.60 273.82" enable-background="new 0 0 897.60 273.82" xml:space="preserve">
	<radialGradient id="SVGID_Fill1_" cx="301.966" cy="0.835297" r="428.212" gradientUnits="userSpaceOnUse" gradientTransform="rotate(27.069920 301.966248 0.835297)">
		<stop offset="0.0232558" stop-color="#D9E0E0" stop-opacity="1"/>
		<stop offset="0.990698" stop-color="#373838" stop-opacity="1"/>
	</radialGradient>
	<path fill="url(#SVGID_Fill1_)" fill-rule="evenodd" stroke-width="0.5" stroke-linejoin="round" stroke="#000000" stroke-opacity="1" d="M 387.251,50.011C 402.74,61.1797 417.846,69.5105 428.046,72.9775L 436.676,77.0829L 691.106,254.849L 443.197,70.3794L 437.695,64.3553C 432.182,56.2835 419.729,44.5758 403.749,33.0533C 379.159,15.3209 355.531,4.74213 350.975,9.4249C 346.419,14.1076 362.661,32.2787 387.251,50.011 Z M 391.077,41.819C 373.99,29.4974 360.987,18.6349 362.036,17.5572C 363.084,16.4795 377.786,25.5946 394.874,37.9163C 411.961,50.238 424.964,61.1004 423.915,62.1781C 422.866,63.2558 408.164,54.1407 391.077,41.819 Z "/>
	<g>
		<path fill="#000000" fill-opacity="1" stroke-width="0.2" stroke-linejoin="round" d="M 156.263,171.233L 151.818,171.233L 151.818,157.63C 151.818,155.009 151.333,153.113 150.364,151.942C 149.394,150.771 147.763,150.186 145.472,150.186C 143.527,150.186 141.876,150.926 140.519,152.406C 139.161,153.886 138.483,155.659 138.483,157.727L 138.483,171.233L 134.038,171.233L 134.038,157.174C 134.038,152.515 131.885,150.186 127.579,150.186C 125.582,150.186 123.937,150.883 122.643,152.279C 121.35,153.674 120.703,155.49 120.703,157.727L 120.703,171.233L 116.258,171.233L 116.258,147.316L 120.703,147.316L 120.703,151.307L 120.816,151.307C 122.818,148.327 125.741,146.837 129.584,146.837C 131.517,146.837 133.202,147.305 134.637,148.239C 136.072,149.173 137.056,150.398 137.589,151.912C 139.684,148.529 142.806,146.837 146.956,146.837C 153.161,146.837 156.263,150.074 156.263,156.546L 156.263,171.233 Z "/>
		<path fill="#000000" fill-opacity="1" stroke-width="0.2" stroke-linejoin="round" d="M 184.044,171.233L 179.599,171.233L 179.599,167.287L 179.486,167.287C 177.524,170.237 174.63,171.711 170.804,171.711C 167.992,171.711 165.791,171.079 164.202,169.813C 162.613,168.547 161.819,166.866 161.819,164.768C 161.819,160.278 164.924,157.667 171.134,156.935L 179.599,155.926C 179.599,152.099 177.663,150.186 173.791,150.186C 170.393,150.186 167.329,151.143 164.597,153.056L 164.597,149.102C 167.358,147.592 170.538,146.837 174.138,146.837C 180.742,146.837 184.044,149.802 184.044,155.732L 184.044,171.233 Z M 179.599,158.796L 172.697,159.603C 170.573,159.852 168.97,160.297 167.887,160.937C 166.805,161.578 166.264,162.71 166.264,164.334C 166.264,165.52 166.763,166.488 167.762,167.238C 168.76,167.988 170.087,168.363 171.742,168.363C 174.017,168.363 175.895,167.688 177.376,166.337C 178.858,164.987 179.599,163.278 179.599,161.21L 179.599,158.796 Z "/>
		<path fill="#000000" fill-opacity="1" stroke-width="0.2" stroke-linejoin="round" d="M 206.824,151.143C 206.049,150.505 204.932,150.186 203.473,150.186C 201.581,150.186 199.999,150.966 198.729,152.525C 197.458,154.085 196.823,156.21 196.823,158.901L 196.823,171.233L 192.378,171.233L 192.378,147.316L 196.823,147.316L 196.823,152.002L 196.927,152.002C 197.558,150.378 198.523,149.111 199.823,148.201C 201.122,147.292 202.573,146.837 204.176,146.837C 205.328,146.837 206.211,146.947 206.824,147.166L 206.824,151.143 Z "/>
		<path fill="#000000" fill-opacity="1" stroke-width="0.2" stroke-linejoin="round" d="M 232.661,160.231L 213.214,160.231C 213.289,162.827 214.125,164.831 215.723,166.244C 217.32,167.657 219.52,168.363 222.321,168.363C 225.469,168.363 228.36,167.566 230.994,165.971L 230.994,169.477C 228.563,170.967 225.345,171.711 221.34,171.711C 217.427,171.711 214.354,170.633 212.12,168.475C 209.886,166.318 208.769,163.281 208.769,159.364C 208.769,155.667 209.977,152.655 212.393,150.328C 214.81,148.001 217.812,146.837 221.401,146.837C 224.983,146.837 227.756,147.843 229.718,149.853C 231.68,151.864 232.661,154.658 232.661,158.236L 232.661,160.231 Z M 228.216,156.883C 228.198,154.77 227.582,153.126 226.366,151.95C 225.151,150.774 223.461,150.186 221.296,150.186C 219.207,150.186 217.433,150.804 215.975,152.039C 214.516,153.275 213.616,154.89 213.275,156.883L 228.216,156.883 Z "/>
		<rect x="239.328" y="135.835" fill="#000000" fill-opacity="1" stroke-width="0.2" stroke-linejoin="round" width="4.44498" height="35.3977"/>
		<path fill="#000000" fill-opacity="1" stroke-width="0.2" stroke-linejoin="round" d="M 254.859,141.097C 254.095,141.097 253.446,140.873 252.91,140.425C 252.375,139.976 252.107,139.408 252.107,138.72C 252.107,138.028 252.375,137.454 252.91,136.998C 253.446,136.542 254.095,136.314 254.859,136.314C 255.641,136.314 256.303,136.542 256.848,136.998C 257.392,137.454 257.664,138.028 257.664,138.72C 257.664,139.378 257.392,139.939 256.848,140.402C 256.303,140.866 255.641,141.097 254.859,141.097 Z M 257.108,171.233L 252.663,171.233L 252.663,147.316L 257.108,147.316L 257.108,171.233 Z "/>
		<path fill="#000000" fill-opacity="1" stroke-width="0.2" stroke-linejoin="round" d="M 270.556,167.563L 270.443,167.563L 270.443,171.233L 265.998,171.233L 265.998,135.835L 270.443,135.835L 270.443,151.725L 270.556,151.725C 272.743,148.467 275.944,146.837 280.158,146.837C 283.723,146.837 286.514,147.901 288.531,150.029C 290.548,152.156 291.556,155.007 291.556,158.579C 291.556,162.556 290.426,165.738 288.166,168.128C 285.906,170.517 282.811,171.711 278.881,171.711C 275.212,171.711 272.437,170.329 270.556,167.563 Z M 270.443,158.153L 270.443,161.419C 270.443,163.353 271.194,164.993 272.696,166.341C 274.198,167.689 276.106,168.363 278.421,168.363C 281.136,168.363 283.263,167.495 284.802,165.758C 286.342,164.022 287.111,161.609 287.111,158.52C 287.111,155.918 286.392,153.879 284.954,152.402C 283.516,150.924 281.567,150.186 279.107,150.186C 276.503,150.186 274.407,150.943 272.822,152.458C 271.236,153.973 270.443,155.871 270.443,158.153 Z "/>
		<path fill="#000000" fill-opacity="1" stroke-width="0.2" stroke-linejoin="round" d="M 321.56,171.233L 317.115,171.233L 317.115,167.242L 317.002,167.242C 315.133,170.222 312.233,171.711 308.303,171.711C 301.584,171.711 298.224,168.328 298.224,161.562L 298.224,147.316L 302.669,147.316L 302.669,160.866C 302.669,165.864 304.952,168.363 309.519,168.363C 311.729,168.363 313.548,167.68 314.975,166.315C 316.402,164.95 317.115,163.166 317.115,160.964L 317.115,147.316L 321.56,147.316L 321.56,171.233 Z "/>
		<path fill="#000000" fill-opacity="1" stroke-width="0.2" stroke-linejoin="round" d="M 331.005,171.233L 331.005,137.749L 341.875,137.749C 355.742,137.749 362.676,143.19 362.676,154.072C 362.676,159.24 360.75,163.391 356.898,166.528C 353.047,169.665 347.891,171.233 341.432,171.233L 331.005,171.233 Z M 335.45,141.097L 335.45,167.885L 341.319,167.885C 346.482,167.885 350.499,166.691 353.369,164.304C 356.24,161.918 357.675,158.537 357.675,154.162C 357.675,145.452 352.316,141.097 341.597,141.097L 335.45,141.097 Z "/>
		<path fill="#000000" fill-opacity="1" stroke-width="0.2" stroke-linejoin="round" d="M 391.568,160.231L 372.121,160.231C 372.197,162.827 373.033,164.831 374.63,166.244C 376.228,167.657 378.427,168.363 381.228,168.363C 384.377,168.363 387.268,167.566 389.901,165.971L 389.901,169.477C 387.47,170.967 384.252,171.711 380.247,171.711C 376.335,171.711 373.262,170.633 371.028,168.475C 368.793,166.318 367.676,163.281 367.676,159.364C 367.676,155.667 368.885,152.655 371.301,150.328C 373.717,148.001 376.72,146.837 380.308,146.837C 383.891,146.837 386.663,147.843 388.625,149.853C 390.587,151.864 391.568,154.658 391.568,158.236L 391.568,160.231 Z M 387.123,156.883C 387.106,154.77 386.489,153.126 385.274,151.95C 384.059,150.774 382.369,150.186 380.204,150.186C 378.115,150.186 376.341,150.804 374.882,152.039C 373.424,153.275 372.524,154.89 372.182,156.883L 387.123,156.883 Z "/>
		<path fill="#000000" fill-opacity="1" stroke-width="0.2" stroke-linejoin="round" d="M 396.569,170.232L 396.569,165.971C 399,167.566 401.673,168.363 404.591,168.363C 408.503,168.363 410.459,167.299 410.459,165.171C 410.459,164.539 410.291,164.002 409.956,163.561C 409.62,163.12 409.166,162.729 408.593,162.387C 408.02,162.046 407.345,161.74 406.57,161.468C 405.794,161.197 404.961,160.914 404.07,160.62C 402.837,160.206 401.752,159.786 400.814,159.36C 399.876,158.934 399.094,158.454 398.466,157.918C 397.838,157.382 397.365,156.774 397.046,156.094C 396.728,155.414 396.569,154.618 396.569,153.706C 396.569,152.59 396.87,151.603 397.472,150.746C 398.074,149.889 398.875,149.171 399.876,148.59C 400.878,148.01 402.021,147.572 403.306,147.278C 404.591,146.984 405.916,146.837 407.282,146.837C 409.707,146.837 411.877,147.219 413.793,147.981L 413.793,152.099C 411.709,150.824 409.313,150.186 406.605,150.186C 405.754,150.186 404.987,150.263 404.304,150.418C 403.621,150.572 403.035,150.79 402.546,151.072C 402.057,151.353 401.679,151.689 401.413,152.08C 401.147,152.472 401.014,152.904 401.014,153.377C 401.014,153.995 401.145,154.513 401.409,154.932C 401.672,155.35 402.058,155.722 402.568,156.046C 403.077,156.369 403.696,156.663 404.426,156.928C 405.155,157.192 405.982,157.478 406.909,157.787C 408.147,158.191 409.257,158.605 410.238,159.032C 411.219,159.458 412.055,159.937 412.747,160.47C 413.439,161.003 413.971,161.618 414.344,162.313C 414.718,163.008 414.904,163.836 414.904,164.798C 414.904,165.974 414.603,166.995 414.001,167.862C 413.399,168.729 412.594,169.448 411.584,170.019C 410.574,170.589 409.412,171.014 408.098,171.293C 406.784,171.572 405.407,171.711 403.965,171.711C 401.124,171.711 398.658,171.218 396.569,170.232 Z "/>
		<path fill="#000000" fill-opacity="1" stroke-width="0.2" stroke-linejoin="round" d="M 423.768,141.097C 423.004,141.097 422.355,140.873 421.819,140.425C 421.284,139.976 421.016,139.408 421.016,138.72C 421.016,138.028 421.284,137.454 421.819,136.998C 422.355,136.542 423.004,136.314 423.768,136.314C 424.549,136.314 425.212,136.542 425.756,136.998C 426.3,137.454 426.572,138.028 426.572,138.72C 426.572,139.378 426.3,139.939 425.756,140.402C 425.212,140.866 424.549,141.097 423.768,141.097 Z M 426.017,171.233L 421.572,171.233L 421.572,147.316L 426.017,147.316L 426.017,171.233 Z "/>
		<path fill="#000000" fill-opacity="1" stroke-width="0.2" stroke-linejoin="round" d="M 458.798,169.454C 458.798,178.294 453.98,182.713 444.343,182.713C 440.958,182.713 437.997,182.13 435.462,180.964L 435.462,176.973C 438.541,178.568 441.476,179.365 444.265,179.365C 450.991,179.365 454.353,176.141 454.353,169.693L 454.353,167.003L 454.249,167.003C 452.137,170.142 448.959,171.711 444.717,171.711C 441.267,171.711 438.492,170.655 436.391,168.542C 434.29,166.43 433.24,163.594 433.24,160.037C 433.24,156.001 434.371,152.792 436.634,150.41C 438.897,148.028 441.996,146.837 445.932,146.837C 449.665,146.837 452.435,148.173 454.24,150.844L 454.353,150.844L 454.353,147.316L 458.798,147.316L 458.798,169.454 Z M 454.353,160.396L 454.353,156.942C 454.353,155.089 453.604,153.499 452.105,152.174C 450.606,150.848 448.739,150.186 446.505,150.186C 443.75,150.186 441.591,151.027 440.029,152.708C 438.466,154.39 437.685,156.746 437.685,159.775C 437.685,162.381 438.434,164.464 439.933,166.024C 441.432,167.583 443.415,168.363 445.88,168.363C 448.386,168.363 450.425,167.617 451.996,166.124C 453.568,164.632 454.353,162.722 454.353,160.396 Z "/>
		<path fill="#000000" fill-opacity="1" stroke-width="0.2" stroke-linejoin="round" d="M 491.024,171.233L 486.579,171.233L 486.579,157.727C 486.579,152.7 484.383,150.186 479.99,150.186C 477.721,150.186 475.845,150.898 474.36,152.323C 472.875,153.748 472.133,155.55 472.133,157.727L 472.133,171.233L 467.688,171.233L 467.688,147.316L 472.133,147.316L 472.133,151.494L 472.246,151.494C 474.376,148.39 477.458,146.837 481.492,146.837C 484.577,146.837 486.937,147.679 488.572,149.364C 490.207,151.048 491.024,153.479 491.024,156.658L 491.024,171.233 Z "/>
	</g>
	<radialGradient id="SVGID_Fill2_" cx="90.7929" cy="150.86" r="22.5072" gradientUnits="userSpaceOnUse">
		<stop offset="0" stop-color="#FCFFFF" stop-opacity="1"/>
		<stop offset="1" stop-color="#00DCFC" stop-opacity="1"/>
	</radialGradient>
	<path fill="url(#SVGID_Fill2_)" fill-rule="evenodd" stroke-width="1.00014" stroke-linejoin="round" stroke="#000000" stroke-opacity="1" d="M 82.9996,140.536L 89.175,131.981L 76.8242,131.981L 82.9996,140.536 Z M 98.4216,140.536L 104.597,131.981L 92.2462,131.981L 98.4216,140.536 Z M 90.7938,132.934L 84.6183,141.489L 96.969,141.489L 90.7938,132.934 Z M 106.11,132.88L 99.9341,141.435L 112.285,141.435L 106.11,132.88 Z M 75.2141,132.88L 69.0386,141.435L 81.3894,141.435L 75.2141,132.88 Z M 90.7938,169.738L 96.9692,142.806L 84.6184,142.806L 90.7938,169.738 Z M 88.8791,168.128L 68.9395,142.859L 83.0029,142.859L 88.8791,168.128 Z M 92.7069,168.061L 112.646,142.793L 98.5831,142.793L 92.7069,168.061 Z "/>
	<path fill="none" fill-rule="evenodd" stroke-width="1.00014" stroke-linejoin="round" stroke="#000000" stroke-opacity="1" d="M 321.026,57.4242L 317.94,53.5737L 315.594,57.5636L 321.026,57.4242 Z M 323.955,52.4421L 320.868,48.5916L 318.523,52.5815L 323.955,52.4421 Z M 318.721,53.2574L 321.808,57.108L 324.153,53.118L 318.721,53.2574 Z M 321.603,48.2978L 324.689,52.1485L 327.035,48.1585L 321.603,48.2978 Z M 315.736,58.2787L 318.823,62.1293L 321.168,58.1394L 315.736,58.2787 Z M 337.046,61.2405L 324.809,53.4038L 322.464,57.3937L 337.046,61.2405 Z M 335.881,61.5097L 319.513,62.4704L 322.184,57.9272L 335.881,61.5097 Z M 336.574,60.2587L 327.78,48.3363L 325.109,52.8795L 336.574,60.2587 Z "/>
	<radialGradient id="SVGID_Fill3_" cx="370.029" cy="45.8586" r="9.89404" gradientUnits="userSpaceOnUse">
		<stop offset="0" stop-color="#FCFFFF" stop-opacity="1"/>
		<stop offset="0.599998" stop-color="#9A1FD2" stop-opacity="1"/>
	</radialGradient>
	<path fill="url(#SVGID_Fill3_)" fill-rule="evenodd" stroke-width="1.00014" stroke-linejoin="round" stroke="#000000" stroke-opacity="1" d="M 373.437,48.9023L 372.466,53.5055L 377.399,52.1051L 373.437,48.9023 Z M 367.278,50.6509L 366.307,55.2541L 371.239,53.8537L 367.278,50.6509 Z M 371.653,53.2544L 372.624,48.6512L 367.692,50.0516L 371.653,53.2544 Z M 365.545,55.0156L 366.517,50.4124L 361.584,51.8128L 365.545,55.0156 Z M 377.885,51.5124L 378.856,46.9092L 373.923,48.3096L 377.885,51.5124 Z M 365.221,36.4628L 367.461,49.4504L 372.394,48.05L 365.221,36.4628 Z M 366.267,36.9806L 378.647,46.2479L 373.03,47.8425L 366.267,36.9806 Z M 364.75,37.4449L 361.202,51.2341L 366.819,49.6395L 364.75,37.4449 Z "/>
	<radialGradient id="SVGID_Fill4_" cx="302.892" cy="87.6964" r="9.78134" gradientUnits="userSpaceOnUse">
		<stop offset="0" stop-color="#FCFFFF" stop-opacity="1"/>
		<stop offset="1" stop-color="#FF03BE" stop-opacity="1"/>
	</radialGradient>
	<path fill="url(#SVGID_Fill4_)" fill-rule="evenodd" stroke-width="1.00014" stroke-linejoin="round" stroke="#000000" stroke-opacity="1" d="M 300.378,83.0839L 304.76,80.3172L 300.061,78.4134L 300.378,83.0839 Z M 306.247,85.4613L 310.629,82.6946L 305.929,80.7907L 306.247,85.4613 Z M 305.15,80.9809L 300.768,83.7476L 305.467,85.6515L 305.15,80.9809 Z M 310.991,83.3185L 306.609,86.0851L 311.308,87.989L 310.991,83.3185 Z M 299.234,78.5559L 294.852,81.3225L 299.552,83.2265L 299.234,78.5559 Z M 296.406,96.9793L 305.154,86.2243L 300.455,84.3204L 296.406,96.9793 Z M 296.06,95.9841L 294.476,81.9266L 299.827,84.0945L 296.06,95.9841 Z M 297.533,96.5453L 311.123,88.6352L 305.772,86.4673L 297.533,96.5453 Z "/>
	<path fill="none" fill-rule="evenodd" stroke-width="1.00014" stroke-linejoin="round" stroke="#000000" stroke-opacity="1" d="M 252.999,84.0509L 255.527,79.9094L 250.334,79.9738L 252.999,84.0509 Z M 259.484,83.9705L 262.012,79.829L 256.819,79.8934L 259.484,83.9705 Z M 256.216,80.3586L 253.688,84.5002L 258.881,84.4357L 256.216,80.3586 Z M 262.655,80.2528L 260.128,84.3943L 265.321,84.3299L 262.655,80.2528 Z M 249.664,80.414L 247.136,84.5555L 252.329,84.4911L 249.664,80.414 Z M 256.512,98.0378L 258.892,85.0687L 253.698,85.1331L 256.512,98.0378 Z M 255.694,97.2741L 247.106,85.2404L 253.019,85.1671L 255.694,97.2741 Z M 257.303,97.2222L 265.484,84.9805L 259.57,85.0539L 257.303,97.2222 Z "/>
	<radialGradient id="SVGID_Fill5_" cx="214.268" cy="72.9069" r="11.3188" gradientUnits="userSpaceOnUse">
		<stop offset="0" stop-color="#FCFFFF" stop-opacity="1"/>
		<stop offset="1" stop-color="#00DCFC" stop-opacity="1"/>
	</radialGradient>
	<path fill="url(#SVGID_Fill5_)" fill-rule="evenodd" stroke-width="1.00014" stroke-linejoin="round" stroke="#000000" stroke-opacity="1" d="M 209.043,75.8L 204.07,73.9151L 204.503,78.3712L 209.043,75.8 Z M 208.502,70.2357L 203.528,68.3509L 203.962,72.807L 208.502,70.2357 Z M 204.543,73.2928L 209.516,75.1777L 209.083,70.7216L 204.543,73.2928 Z M 203.975,67.7691L 208.948,69.654L 208.515,65.1978L 203.975,67.7691 Z M 205.06,78.916L 210.033,80.8009L 209.6,76.3448L 205.06,78.916 Z M 225.008,71.8163L 209.815,70.6687L 210.249,75.1248L 225.008,71.8163 Z M 224.18,72.5717L 210.829,80.7796L 210.335,75.7055L 224.18,72.5717 Z M 224.008,71.1934L 209.257,65.0129L 209.751,70.0869L 224.008,71.1934 Z "/>
	<path fill="none" fill-rule="evenodd" stroke-width="1.00014" stroke-linejoin="round" stroke="#000000" stroke-opacity="1" d="M 176.715,45.9507L 181.499,43.7313L 177.15,41.2872L 176.715,45.9507 Z M 182.147,49.0027L 186.93,46.7833L 182.581,44.3391L 182.147,49.0027 Z M 181.779,44.435L 176.995,46.6544L 181.344,49.0986L 181.779,44.435 Z M 187.189,47.4442L 182.405,49.6636L 186.755,52.1078L 187.189,47.4442 Z M 176.309,41.3302L 171.525,43.5496L 175.874,45.9937L 176.309,41.3302 Z M 170.554,59.2412L 180.943,49.6287L 176.593,47.1845L 170.554,59.2412 Z M 170.371,58.2144L 171.055,44.1032L 176.008,46.8862L 170.371,58.2144 Z M 171.739,58.9451L 186.468,52.7257L 181.515,49.9427L 171.739,58.9451 Z "/>
	<path fill="none" fill-rule="evenodd" stroke-width="1.00014" stroke-linejoin="round" stroke="#000000" stroke-opacity="1" d="M 424.658,6.24176L 426.639,1.88531L 421.486,2.44284L 424.658,6.24176 Z M 431.093,5.54568L 433.075,1.18924L 427.921,1.74677L 431.093,5.54568 Z M 427.381,2.26642L 425.4,6.62283L 430.553,6.06537L 427.381,2.26642 Z M 433.768,1.54935L 431.787,5.90573L 436.94,5.34824L 433.768,1.54935 Z M 420.877,2.94403L 418.895,7.30045L 424.048,6.74295L 420.877,2.94403 Z M 429.942,19.8094L 430.645,6.69342L 425.491,7.25095L 429.942,19.8094 Z M 429.031,19.1281L 418.953,7.98407L 424.821,7.34921L 429.031,19.1281 Z M 430.623,18.9237L 437.186,5.9794L 431.317,6.61423L 430.623,18.9237 Z "/>
	<radialGradient id="SVGID_Fill6_" cx="475.206" cy="19.9347" r="9.92546" gradientUnits="userSpaceOnUse" gradientTransform="rotate(8.142016 475.206085 19.934723)">
		<stop offset="0" stop-color="#FCFFFF" stop-opacity="1"/>
		<stop offset="0.599998" stop-color="#9A1FD2" stop-opacity="1"/>
	</radialGradient>
	<path fill="url(#SVGID_Fill6_)" fill-rule="evenodd" stroke-width="1.00014" stroke-linejoin="round" stroke="#000000" stroke-opacity="1" d="M 472.269,16.3408L 474.046,11.9195L 468.923,12.6544L 472.269,16.3408 Z M 478.667,15.4232L 480.444,11.0019L 475.321,11.7368L 478.667,15.4232 Z M 474.805,12.2746L 473.028,16.696L 478.152,15.9611L 474.805,12.2746 Z M 481.154,11.3377L 479.377,15.7591L 484.5,15.0242L 481.154,11.3377 Z M 468.337,13.1761L 466.56,17.5974L 471.684,16.8626L 468.337,13.1761 Z M 478.181,29.7152L 478.272,16.5855L 473.149,17.3204L 478.181,29.7152 Z M 477.239,29.0659L 466.65,18.2785L 472.484,17.4417L 477.239,29.0659 Z M 478.82,28.8067L 484.775,15.6463L 478.941,16.4831L 478.82,28.8067 Z "/>
	<path fill="none" fill-rule="evenodd" stroke-width="1.00014" stroke-linejoin="round" stroke="#000000" stroke-opacity="1" d="M 497.481,34.2655L 495.82,29.8108L 492.234,33.0459L 497.481,34.2655 Z M 501.958,30.2259L 500.298,25.7712L 496.712,29.0063L 501.958,30.2259 Z M 496.675,29.7027L 498.335,34.1575L 501.921,30.9223L 496.675,29.7027 Z M 501.1,25.673L 502.76,30.1277L 506.346,26.8926L 501.1,25.673 Z M 492.13,33.7658L 493.79,38.2206L 497.376,34.9854L 492.13,33.7658 Z M 511.533,41.9088L 502.453,31.3593L 498.867,34.5945L 511.533,41.9088 Z M 510.327,41.8762L 494.337,38.7191L 498.42,35.0353L 510.327,41.8762 Z M 511.411,40.8515L 506.999,27.2484L 502.916,30.9322L 511.411,40.8515 Z "/>
	<radialGradient id="SVGID_Fill7_" cx="128.852" cy="46.6635" r="11.1133" gradientUnits="userSpaceOnUse">
		<stop offset="0" stop-color="#FCFFFF" stop-opacity="1"/>
		<stop offset="0.599998" stop-color="#9A1FD2" stop-opacity="1"/>
	</radialGradient>
	<path fill="url(#SVGID_Fill7_)" fill-rule="evenodd" stroke-width="1.00014" stroke-linejoin="round" stroke="#000000" stroke-opacity="1" d="M 125.575,41.7039L 128.172,37.5941L 122.978,37.5941L 125.575,41.7039 Z M 132.06,41.7039L 134.657,37.5942L 129.463,37.5942L 132.06,41.7039 Z M 128.852,38.0518L 126.255,42.1616L 131.449,42.1617L 128.852,38.0518 Z M 135.293,38.026L 132.696,42.1357L 137.891,42.1357L 135.293,38.026 Z M 122.3,38.026L 119.703,42.1357L 124.897,42.1357L 122.3,38.026 Z M 128.852,55.7328L 131.449,42.7946L 126.255,42.7946L 128.852,55.7328 Z M 128.047,54.9591L 119.662,42.8202L 125.576,42.8202L 128.047,54.9591 Z M 129.657,54.9272L 138.043,42.7883L 132.128,42.7883L 129.657,54.9272 Z "/>
	<path fill="none" fill-rule="evenodd" stroke-width="1.00014" stroke-linejoin="round" stroke="#000000" stroke-opacity="1" d="M 70.2448,60.6539L 66.5897,57.1917L 64.8828,61.415L 70.2448,60.6539 Z M 72.3762,55.3803L 68.7212,51.9181L 67.0142,56.1414L 72.3762,55.3803 Z M 67.3156,56.7885L 70.9706,60.2508L 72.6776,56.0274L 67.3156,56.7885 Z M 69.4038,51.5428L 73.0589,55.005L 74.7658,50.7817L 69.4038,51.5428 Z M 65.134,62.1075L 68.789,65.5698L 70.496,61.3464L 65.134,62.1075 Z M 86.7122,62.5989L 73.372,56.2354L 71.6651,60.4588L 86.7122,62.5989 Z M 85.5987,62.9994L 69.5262,65.8286L 71.4698,61.0196L 85.5987,62.9994 Z M 86.0927,61.68L 75.5317,50.8725L 73.5881,55.6815L 86.0927,61.68 Z "/>
	<path fill="none" fill-rule="evenodd" stroke-width="1.00014" stroke-linejoin="round" stroke="#000000" stroke-opacity="1" d="M 239.014,245.334L 241.611,241.224L 236.417,241.224L 239.014,245.334 Z M 245.5,245.334L 248.097,241.224L 242.902,241.224L 245.5,245.334 Z M 242.292,241.682L 239.695,245.791L 244.889,245.791L 242.292,241.682 Z M 248.733,241.656L 246.136,245.766L 251.33,245.766L 248.733,241.656 Z M 235.74,241.656L 233.143,245.766L 238.337,245.766L 235.74,241.656 Z M 242.292,259.363L 244.889,246.424L 239.695,246.424L 242.292,259.363 Z M 241.486,258.589L 233.101,246.45L 239.015,246.45L 241.486,258.589 Z M 243.096,258.557L 251.482,246.418L 245.567,246.418L 243.096,258.557 Z "/>
	<radialGradient id="SVGID_Fill8_" cx="308.317" cy="226.928" r="9.89505" gradientUnits="userSpaceOnUse">
		<stop offset="0" stop-color="#FCFFFF" stop-opacity="1"/>
		<stop offset="1" stop-color="#00DCFC" stop-opacity="1"/>
	</radialGradient>
	<path fill="url(#SVGID_Fill8_)" fill-rule="evenodd" stroke-width="1.00014" stroke-linejoin="round" stroke="#000000" stroke-opacity="1" d="M 304.909,223.868L 305.893,219.267L 300.956,220.657L 304.909,223.868 Z M 311.073,222.132L 312.057,217.531L 307.12,218.921L 311.073,222.132 Z M 306.705,219.52L 305.721,224.121L 310.658,222.731L 306.705,219.52 Z M 312.817,217.771L 311.833,222.372L 316.77,220.982L 312.817,217.771 Z M 300.468,221.249L 299.484,225.85L 304.421,224.46L 300.468,221.249 Z M 313.09,236.324L 310.886,223.332L 305.949,224.723L 313.09,236.324 Z M 312.046,235.805L 299.692,226.512L 305.313,224.929L 312.046,235.805 Z M 313.564,235.343L 317.15,221.561L 311.529,223.145L 313.564,235.343 Z "/>
	<radialGradient id="SVGID_Fill9_" cx="431.027" cy="263.908" r="9.91362" gradientUnits="userSpaceOnUse">
		<stop offset="0" stop-color="#FCFFFF" stop-opacity="1"/>
		<stop offset="0.599998" stop-color="#9A1FD2" stop-opacity="1"/>
	</radialGradient>
	<path fill="url(#SVGID_Fill9_)" fill-rule="evenodd" stroke-width="1.00014" stroke-linejoin="round" stroke="#000000" stroke-opacity="1" d="M 428.178,259.047L 431.947,255.676L 426.938,254.492L 428.178,259.047 Z M 434.432,260.526L 438.201,257.155L 433.192,255.971L 434.432,260.526 Z M 432.462,256.273L 428.694,259.644L 433.703,260.828L 432.462,256.273 Z M 438.681,257.716L 434.913,261.087L 439.922,262.271L 438.681,257.716 Z M 426.152,254.754L 422.384,258.125L 427.392,259.31L 426.152,254.754 Z M 427.024,273.323L 433.508,261.439L 428.499,260.255L 427.024,273.323 Z M 426.486,272.393L 422.133,258.776L 427.836,260.124L 426.486,272.393 Z M 428.048,272.729L 439.868,262.935L 434.164,261.587L 428.048,272.729 Z "/>
	<path fill="none" fill-rule="evenodd" stroke-width="1.00014" stroke-linejoin="round" stroke="#000000" stroke-opacity="1" d="M 271.536,92.4366L 275.524,91.5903L 272.456,88.9904L 271.536,92.4366 Z M 275.366,95.683L 279.354,94.8368L 276.286,92.2369L 275.366,95.683 Z M 275.652,92.1701L 271.664,93.0163L 274.732,95.6162L 275.652,92.1701 Z M 279.472,95.3807L 275.484,96.2268L 278.551,98.8268L 279.472,95.3807 Z M 271.798,88.877L 267.81,89.7232L 270.878,92.3231L 271.798,88.877 Z M 265.094,101.403L 274.354,95.9468L 271.286,93.347L 265.094,101.403 Z M 265.081,100.596L 267.377,90.0598L 270.87,93.0202L 265.081,100.596 Z M 266.05,101.385L 278.252,99.2437L 274.759,96.2832L 266.05,101.385 Z "/>
	<path fill="none" fill-rule="evenodd" stroke-width="1.00014" stroke-linejoin="round" stroke="#000000" stroke-opacity="1" d="M 323.398,69.2022L 323.727,65.6775L 319.892,67.3608L 323.398,69.2022 Z M 328.187,67.1004L 328.515,63.5758L 324.68,65.259L 328.187,67.1004 Z M 324.406,65.7557L 324.078,69.2804L 327.913,67.5972L 324.406,65.7557 Z M 329.152,63.6515L 328.823,67.1761L 332.658,65.493L 329.152,63.6515 Z M 319.559,67.8621L 319.23,71.3868L 323.065,69.7036L 319.559,67.8621 Z M 331.242,77.2987L 328.157,68.0104L 324.322,69.6937L 331.242,77.2987 Z M 330.348,77.0545L 319.464,71.8471L 323.831,69.9305L 330.348,77.0545 Z M 331.524,76.512L 333.023,65.8697L 328.656,67.7863L 331.524,76.512 Z "/>
	<path fill="none" fill-rule="evenodd" stroke-width="1.00014" stroke-linejoin="round" stroke="#000000" stroke-opacity="1" d="M 286.535,100.603L 285.993,98.5918L 284.154,100.36L 286.535,100.603 Z M 288.832,98.3951L 288.29,96.3844L 286.451,98.1523L 288.832,98.3951 Z M 286.397,98.4856L 286.939,100.496L 288.778,98.7284L 286.397,98.4856 Z M 288.669,96.2862L 289.21,98.2969L 291.05,96.529L 288.669,96.2862 Z M 284.068,100.709L 284.609,102.719L 286.449,100.951L 284.068,100.709 Z M 292.684,103.333L 289.003,98.9019L 287.164,100.67L 292.684,103.333 Z M 292.124,103.395L 284.838,102.921L 286.932,100.908L 292.124,103.395 Z M 292.682,102.838L 291.336,96.6562L 289.241,98.6692L 292.682,102.838 Z "/>
	<path fill="none" fill-rule="evenodd" stroke-width="1.00014" stroke-linejoin="round" stroke="#000000" stroke-opacity="1" d="M 282.163,86.1485L 284.509,83.2459L 280.211,83.0374L 282.163,86.1485 Z M 287.529,86.4089L 289.875,83.5063L 285.577,83.2978L 287.529,86.4089 Z M 285.05,83.6081L 282.704,86.5107L 287.002,86.7193L 285.05,83.6081 Z M 290.381,83.8477L 288.035,86.7503L 292.333,86.9588L 290.381,83.8477 Z M 279.63,83.3262L 277.284,86.2288L 281.582,86.4373L 279.63,83.3262 Z M 284.203,96.5444L 286.972,87.1824L 282.674,86.9739L 284.203,96.5444 Z M 283.574,95.946L 277.217,86.728L 282.111,86.9654L 283.574,95.946 Z M 284.908,95.9872L 292.427,87.4423L 287.534,87.205L 284.908,95.9872 Z "/>
	<path fill="none" fill-rule="evenodd" stroke-width="1.00014" stroke-linejoin="round" stroke="#000000" stroke-opacity="1" d="M 308.784,68.7904L 312.888,68.9262L 310.775,65.6976L 308.784,68.7904 Z M 311.422,72.8219L 315.527,72.9577L 313.413,69.7291L 311.422,72.8219 Z M 312.826,69.514L 308.721,69.3782L 310.835,72.6068L 312.826,69.514 Z M 315.465,73.5084L 311.361,73.3726L 313.474,76.6012L 315.465,73.5084 Z M 310.179,65.432L 306.075,65.2962L 308.188,68.5248L 310.179,65.432 Z M 299.714,75.8749L 310.365,72.8346L 308.252,69.606L 299.714,75.8749 Z M 299.96,75.096L 305.55,65.5165L 307.957,69.1928L 299.96,75.096 Z M 300.639,76.0851L 313.052,76.9305L 310.646,73.2542L 300.639,76.0851 Z "/>
	<path fill="none" fill-rule="evenodd" stroke-width="1.00014" stroke-linejoin="round" stroke="#000000" stroke-opacity="1" d="M 319.512,76.496L 321.906,76.3799L 320.196,74.5178L 319.512,76.496 Z M 321.646,78.8212L 324.04,78.705L 322.331,76.8429L 321.646,78.8212 Z M 321.958,76.7406L 319.564,76.8567L 321.274,78.7188L 321.958,76.7406 Z M 324.088,79.0431L 321.694,79.1592L 323.403,81.0214L 324.088,79.0431 Z M 319.812,74.3851L 317.418,74.5013L 319.127,76.3633L 319.812,74.3851 Z M 315.336,81.246L 321.037,78.8802L 319.327,77.018L 315.336,81.246 Z M 315.361,80.7602L 317.148,74.6607L 319.094,76.781L 315.361,80.7602 Z M 315.903,81.3291L 323.209,81.2422L 321.262,79.1219L 315.903,81.3291 Z "/>
	<path fill="none" fill-rule="evenodd" stroke-width="1.00014" stroke-linejoin="round" stroke="#000000" stroke-opacity="1" d="M 407.248,30.6772L 404.962,30.0556L 405.794,32.3183L 407.248,30.6772 Z M 406.209,27.8518L 403.923,27.2302L 404.755,29.493L 406.209,27.8518 Z M 405.061,29.7022L 407.347,30.3239L 406.515,28.0612L 405.061,29.7022 Z M 404.017,26.8996L 406.304,27.5212L 405.472,25.2585L 404.017,26.8996 Z M 406.099,32.5598L 408.385,33.1814L 407.553,30.9186L 406.099,32.5598 Z M 413.108,27.5092L 406.803,27.9826L 407.635,30.2453L 413.108,27.5092 Z M 412.884,27.9559L 408.703,33.1147L 407.756,30.5381L 412.884,27.9559 Z M 412.612,27.2586L 405.744,25.1113L 406.692,27.6877L 412.612,27.2586 Z "/>
	<path fill="none" fill-rule="evenodd" stroke-width="1.00014" stroke-linejoin="round" stroke="#000000" stroke-opacity="1" d="M 350.206,47.5912L 349.665,45.5805L 347.825,47.3484L 350.206,47.5912 Z M 352.503,45.3836L 351.961,43.373L 350.122,45.1409L 352.503,45.3836 Z M 350.068,45.4743L 350.61,47.485L 352.449,45.7171L 350.068,45.4743 Z M 352.34,43.2748L 352.882,45.2856L 354.721,43.5176L 352.34,43.2748 Z M 347.739,47.6972L 348.281,49.7079L 350.12,47.94L 347.739,47.6972 Z M 356.355,50.3217L 352.674,45.8906L 350.835,47.6585L 356.355,50.3217 Z M 355.795,50.3836L 348.509,49.9098L 350.604,47.8968L 355.795,50.3836 Z M 356.354,49.827L 355.007,43.6448L 352.913,45.6578L 356.354,49.827 Z "/>
	<path fill="none" fill-rule="evenodd" stroke-width="1.00014" stroke-linejoin="round" stroke="#000000" stroke-opacity="1" d="M 340.192,65.7774L 342.588,65.6926L 340.911,63.8083L 340.192,65.7774 Z M 342.285,68.1302L 344.681,68.0454L 343.004,66.1612L 342.285,68.1302 Z M 342.634,66.0539L 340.238,66.1387L 341.915,68.023L 342.634,66.0539 Z M 344.722,68.3841L 342.327,68.4688L 344.003,70.3531L 344.722,68.3841 Z M 340.529,63.6706L 338.134,63.7554L 339.81,65.6397L 340.529,63.6706 Z M 335.933,70.4721L 341.675,68.1812L 339.998,66.2969L 335.933,70.4721 Z M 335.967,69.9866L 337.861,63.9113L 339.769,66.0569L 335.967,69.9866 Z M 336.498,70.5627L 343.805,70.5714L 341.896,68.4258L 336.498,70.5627 Z "/>
	<path fill="none" fill-rule="evenodd" stroke-width="1.00014" stroke-linejoin="round" stroke="#000000" stroke-opacity="1" d="M 410.115,6.63425L 410.246,4.57315L 407.907,5.83014L 410.115,6.63425 Z M 413.035,5.06473L 413.166,3.0036L 410.827,4.26059L 413.035,5.06473 Z M 410.668,4.56793L 410.538,6.62909L 412.876,5.3721L 410.668,4.56793 Z M 413.561,3.00015L 413.431,5.06125L 415.769,3.80429L 413.561,3.00015 Z M 407.712,6.14456L 407.581,8.20566L 409.92,6.94867L 407.712,6.14456 Z M 415.138,10.7314L 413.036,5.59274L 410.698,6.84976L 415.138,10.7314 Z M 414.58,10.6566L 407.736,8.45438L 410.398,7.02304L 414.58,10.6566 Z M 415.296,10.2559L 416.003,3.99493L 413.34,5.42624L 415.296,10.2559 Z "/>
	<path fill="none" fill-rule="evenodd" stroke-width="1.00014" stroke-linejoin="round" stroke="#000000" stroke-opacity="1" d="M 442.759,2.61911L 445.074,2.08246L 442.958,0.561981L 442.759,2.61911 Z M 445.402,4.51767L 447.718,3.98105L 445.601,2.4606L 445.402,4.51767 Z M 445.212,2.42621L 442.897,2.96283L 445.013,4.48331L 445.212,2.42621 Z M 447.845,4.30353L 445.53,4.84012L 447.646,6.36063L 447.845,4.30353 Z M 442.55,0.500061L 440.234,1.03668L 442.351,2.55716L 442.55,0.500061 Z M 439.805,8.00558L 444.82,4.68307L 442.703,3.16257L 439.805,8.00558 Z M 439.713,7.52573L 440.008,1.24045L 442.418,2.97177L 439.713,7.52573 Z M 440.379,7.98688L 447.509,6.61102L 445.098,4.87973L 440.379,7.98688 Z "/>
	<path fill="none" fill-rule="evenodd" stroke-width="1.00014" stroke-linejoin="round" stroke="#000000" stroke-opacity="1" d="M 463.67,26.2068L 461.901,24.8131L 461.547,27.1669L 463.67,26.2068 Z M 464.112,23.2678L 462.343,21.8741L 461.989,24.2278L 464.112,23.2678 Z M 462.164,24.5288L 463.933,25.9225L 464.287,23.5688L 462.164,24.5288 Z M 462.591,21.6086L 464.359,23.0023L 464.713,20.6486L 462.591,21.6086 Z M 461.705,27.4965L 463.474,28.8903L 463.828,26.5365L 461.705,27.4965 Z M 470.534,25.4617L 464.586,23.6021L 464.232,25.9559L 470.534,25.4617 Z M 470.113,25.7858L 463.795,28.9453L 464.198,26.2651L 470.113,25.7858 Z M 470.208,25.0546L 465.033,20.6141L 464.629,23.2943L 470.208,25.0546 Z "/>
	<path fill="none" fill-rule="evenodd" stroke-width="1.00014" stroke-linejoin="round" stroke="#000000" stroke-opacity="1" d="M 346.884,55.2247L 349.756,52.6969L 345.558,51.878L 346.884,55.2247 Z M 352.126,56.2473L 354.998,53.7196L 350.8,52.9007L 352.126,56.2473 Z M 350.22,53.1314L 347.348,55.6591L 351.546,56.4781L 350.22,53.1314 Z M 355.431,54.1285L 352.559,56.6562L 356.757,57.4752L 355.431,54.1285 Z M 344.929,52.0799L 342.057,54.6076L 346.255,55.4265L 344.929,52.0799 Z M 346.894,65.7679L 351.427,56.9305L 347.229,56.1115L 346.894,65.7679 Z M 346.389,65.088L 341.894,55.0902L 346.675,56.0227L 346.389,65.088 Z M 347.696,65.3189L 356.757,57.9655L 351.977,57.033L 347.696,65.3189 Z "/>
	<radialGradient id="SVGID_Fill10_" cx="337.564" cy="47.918" r="8.63206" gradientUnits="userSpaceOnUse" gradientTransform="rotate(8.982120 337.563660 47.918030)">
		<stop offset="0" stop-color="#FCFFFF" stop-opacity="1"/>
		<stop offset="1" stop-color="#00DCFC" stop-opacity="1"/>
	</radialGradient>
	<path fill="url(#SVGID_Fill10_)" fill-rule="evenodd" stroke-width="1.00014" stroke-linejoin="round" stroke="#000000" stroke-opacity="1" d="M 335.239,45.0074L 337.14,41.8729L 332.846,42.1334L 335.239,45.0074 Z M 340.6,44.6821L 342.502,41.5477L 338.208,41.8082L 340.6,44.6821 Z M 337.73,42.1734L 335.829,45.3078L 340.123,45.0473L 337.73,42.1734 Z M 343.053,41.8314L 341.152,44.9658L 345.446,44.7054L 343.053,41.8314 Z M 332.312,42.483L 330.411,45.6175L 334.705,45.357L 332.312,42.483 Z M 338.788,55.0981L 340.161,45.51L 335.867,45.7706L 338.788,55.0981 Z M 338.076,54.5729L 330.417,46.1199L 335.307,45.8233L 338.076,54.5729 Z M 339.405,54.4688L 345.611,45.1747L 340.721,45.4713L 339.405,54.4688 Z "/>
	<path fill="none" fill-rule="evenodd" stroke-width="1.00014" stroke-linejoin="round" stroke="#000000" stroke-opacity="1" d="M 355.334,33.1035L 359.425,33.4238L 357.51,30.1045L 355.334,33.1035 Z M 357.725,37.2482L 361.815,37.5685L 359.901,34.2492L 357.725,37.2482 Z M 359.327,34.008L 355.236,33.6877L 357.151,37.007L 359.327,34.008 Z M 361.72,38.1157L 357.63,37.7954L 359.544,41.1147L 361.72,38.1157 Z M 356.932,29.8125L 352.841,29.4922L 354.756,32.8116L 356.932,29.8125 Z M 345.847,39.7703L 356.668,37.2133L 354.754,33.8941L 345.847,39.7703 Z M 346.14,39.0036L 352.304,29.6887L 354.484,33.4682L 346.14,39.0036 Z M 346.758,40.0219L 359.103,41.4245L 356.923,37.645L 346.758,40.0219 Z "/>
	<path fill="#FCFFFF" fill-opacity="1" fill-rule="evenodd" stroke-width="1.00014" stroke-linejoin="round" stroke="#000000" stroke-opacity="1" d="M 379.616,22.6046L 381.308,18.1584L 376.199,18.9667L 379.616,22.6046 Z M 385.995,21.5953L 387.686,17.1491L 382.578,17.9575L 385.995,21.5953 Z M 382.073,18.5026L 380.382,22.9488L 385.49,22.1405L 382.073,18.5026 Z M 388.403,17.4748L 386.711,21.921L 391.82,21.1126L 388.403,17.4748 Z M 375.624,19.4969L 373.932,23.943L 379.041,23.1347L 375.624,19.4969 Z M 385.786,35.8924L 385.623,22.7631L 380.515,23.5714L 385.786,35.8924 Z M 384.831,35.2567L 374.035,24.6227L 379.852,23.7023L 384.831,35.2567 Z M 386.408,34.9748L 392.106,21.7308L 386.29,22.6512L 386.408,34.9748 Z "/>
	<radialGradient id="SVGID_Fill11_" cx="53.8556" cy="79.7469" r="9.76294" gradientUnits="userSpaceOnUse">
		<stop offset="0" stop-color="#FCFFFF" stop-opacity="1"/>
		<stop offset="1" stop-color="#FF03BE" stop-opacity="1"/>
	</radialGradient>
	<path fill="url(#SVGID_Fill11_)" fill-rule="evenodd" stroke-width="1.00014" stroke-linejoin="round" stroke="#000000" stroke-opacity="1" d="M 50.4984,77.5484L 50.7973,72.8769L 46.1051,74.7946L 50.4984,77.5484 Z M 56.3574,75.1538L 56.6564,70.4824L 51.9641,72.4001L 56.3574,75.1538 Z M 51.6403,73.039L 51.3413,77.7105L 56.0336,75.7928L 51.6403,73.039 Z M 57.4461,70.6375L 57.1471,75.309L 61.8394,73.3913L 57.4461,70.6375 Z M 45.7085,75.4347L 45.4095,80.1061L 50.1018,78.1885L 45.7085,75.4347 Z M 60.4477,89.0116L 56.3489,76.3647L 51.6567,78.2824L 60.4477,89.0116 Z M 59.3349,88.6099L 45.7128,80.7399L 51.0557,78.5563L 59.3349,88.6099 Z M 60.7732,87.9867L 62.3018,73.9247L 56.9589,76.1083L 60.7732,87.9867 Z "/>
	<radialGradient id="SVGID_Fill12_" cx="521.644" cy="55.0084" r="10.2734" gradientUnits="userSpaceOnUse" gradientTransform="rotate(6.195359 521.643677 55.008362)">
		<stop offset="0" stop-color="#FCFFFF" stop-opacity="1"/>
		<stop offset="1" stop-color="#00DCFC" stop-opacity="1"/>
	</radialGradient>
	<path fill="url(#SVGID_Fill12_)" fill-rule="evenodd" stroke-width="1.00014" stroke-linejoin="round" stroke="#000000" stroke-opacity="1" d="M 521.654,51.2546L 526.994,50.3875L 523.71,46.9236L 521.654,51.2546 Z M 525.756,55.5799L 531.096,54.7127L 527.811,51.2489L 525.756,55.5799 Z M 527.013,51.131L 521.673,51.9981L 524.958,55.4619L 527.013,51.131 Z M 531.11,55.41L 525.77,56.2771L 529.054,59.741L 531.11,55.41 Z M 522.893,46.7452L 517.553,47.6122L 520.837,51.0761L 522.893,46.7452 Z M 511.104,62.3127L 524.388,55.8623L 521.103,52.3985L 511.104,62.3127 Z M 511.291,61.2864L 516.91,48.0174L 520.651,51.9615L 511.291,61.2864 Z M 512.338,62.3398L 528.563,60.2551L 524.823,56.3109L 512.338,62.3398 Z "/>
	<path fill="none" fill-rule="evenodd" stroke-width="1.00014" stroke-linejoin="round" stroke="#000000" stroke-opacity="1" d="M 445.853,23.1312L 441.618,26.0635L 446.412,27.7849L 445.853,23.1312 Z M 439.867,20.9816L 435.632,23.914L 440.426,25.6353L 439.867,20.9816 Z M 441.195,25.4154L 445.429,22.4831L 440.635,20.7617L 441.195,25.4154 Z M 435.238,23.3047L 439.473,20.3724L 434.679,18.6509L 435.238,23.3047 Z M 447.23,27.6107L 451.465,24.6784L 446.671,22.957L 447.23,27.6107 Z M 449.1,9.09695L 440.918,20.1774L 445.712,21.8988L 449.1,9.09695 Z M 449.497,10.0779L 451.809,24.0605L 446.351,22.1004L 449.497,10.0779 Z M 447.997,9.57391L 434.83,17.9983L 440.289,19.9584L 447.997,9.57391 Z "/>
	<radialGradient id="SVGID_Fill13_" cx="400.42" cy="17.2154" r="10.1865" gradientUnits="userSpaceOnUse">
		<stop offset="0" stop-color="#FCFFFF" stop-opacity="1"/>
		<stop offset="1" stop-color="#FF03BE" stop-opacity="1"/>
	</radialGradient>
	<path fill="url(#SVGID_Fill13_)" fill-rule="evenodd" stroke-width="1.00014" stroke-linejoin="round" stroke="#000000" stroke-opacity="1" d="M 404.621,17.0098L 406.098,21.5122L 409.815,18.3881L 404.621,17.0098 Z M 399.981,20.9107L 401.458,25.4131L 405.174,22.289L 399.981,20.9107 Z M 405.24,21.5942L 403.763,17.0917L 400.047,20.2158L 405.24,21.5942 Z M 400.652,25.4869L 399.176,20.9843L 395.459,24.1085L 400.652,25.4869 Z M 409.949,17.6719L 408.472,13.1694L 404.755,16.2935L 409.949,17.6719 Z M 390.892,8.94388L 399.533,19.7629L 403.249,16.6388L 390.892,8.94388 Z M 392.096,9.01315L 407.946,12.6546L 403.715,16.2119L 392.096,9.01315 Z M 390.97,10.0042L 394.821,23.7331L 399.052,20.1757L 390.97,10.0042 Z "/>
	<path fill="#FCFFFF" fill-opacity="1" fill-rule="evenodd" stroke-width="1.00014" stroke-linejoin="round" stroke="#000000" stroke-opacity="1" d="M 395.415,30.8985L 399.3,29.7507L 395.977,27.3956L 395.415,30.8985 Z M 399.565,33.8393L 403.45,32.6915L 400.127,30.3364L 399.565,33.8393 Z M 399.488,30.3184L 395.603,31.4661L 398.927,33.8212L 399.488,30.3184 Z M 403.624,33.2242L 399.739,34.3719L 403.063,36.7271L 403.624,33.2242 Z M 395.31,27.3329L 391.425,28.4806L 394.749,30.8358L 395.31,27.3329 Z M 389.924,40.3224L 398.585,34.1794L 395.261,31.8243L 389.924,40.3224 Z M 389.827,39.5195L 391.028,28.849L 394.812,31.5307L 389.827,39.5195 Z M 390.875,40.2314L 402.807,37.1653L 399.022,34.4836L 390.875,40.2314 Z "/>
	<path fill="none" fill-rule="evenodd" stroke-width="1.00014" stroke-linejoin="round" stroke="#000000" stroke-opacity="1" d="M 419.745,16.528L 423.852,16.5501L 421.62,13.3817L 419.745,16.528 Z M 422.533,20.4843L 426.64,20.5065L 424.408,17.338L 422.533,20.4843 Z M 423.812,17.1394L 419.705,17.1172L 421.937,20.2857L 423.812,17.1394 Z M 426.6,21.0587L 422.492,21.0365L 424.725,24.2049L 426.6,21.0587 Z M 421.014,13.1328L 416.907,13.1106L 419.14,16.2791L 421.014,13.1328 Z M 410.945,23.8599L 421.477,20.5263L 419.244,17.3579L 410.945,23.8599 Z M 411.162,23.0746L 416.391,13.3454L 418.933,16.9532L 411.162,23.0746 Z M 411.877,24.0445L 424.316,24.5457L 421.773,20.9379L 411.877,24.0445 Z "/>
	<path fill="none" fill-rule="evenodd" stroke-width="1.00014" stroke-linejoin="round" stroke="#000000" stroke-opacity="1" d="M 457.087,8.52328L 459.323,5.55707L 455.02,5.46768L 457.087,8.52328 Z M 462.461,8.63498L 464.697,5.66876L 460.393,5.57938L 462.461,8.63498 Z M 459.878,5.90414L 457.642,8.87033L 461.945,8.95978L 459.878,5.90414 Z M 465.215,5.99603L 462.979,8.96222L 467.282,9.05167L 465.215,5.99603 Z M 454.45,5.7724L 452.214,8.73859L 456.517,8.82803L 454.45,5.7724 Z M 459.515,18.8578L 461.932,9.42352L 457.629,9.33414L 459.515,18.8578 Z M 458.864,18.277L 452.165,9.23935L 457.066,9.34116L 458.864,18.277 Z M 460.198,18.2813L 467.395,9.53232L 462.495,9.43057L 460.198,18.2813 Z "/>
	<path fill="none" fill-rule="evenodd" stroke-width="1.00014" stroke-linejoin="round" stroke="#000000" stroke-opacity="1" d="M 491.619,18.93L 495.727,18.9521L 493.494,15.7837L 491.619,18.93 Z M 494.407,22.8864L 498.514,22.9085L 496.282,19.7401L 494.407,22.8864 Z M 495.686,19.5414L 491.579,19.5193L 493.812,22.6877L 495.686,19.5414 Z M 498.474,23.4607L 494.367,23.4385L 496.599,26.607L 498.474,23.4607 Z M 492.889,15.5348L 488.781,15.5126L 491.014,18.6811L 492.889,15.5348 Z M 482.819,26.2619L 493.351,22.9284L 491.118,19.7599L 482.819,26.2619 Z M 483.036,25.4766L 488.265,15.7474L 490.808,19.3552L 483.036,25.4766 Z M 483.751,26.4465L 496.19,26.9478L 493.647,23.3399L 483.751,26.4465 Z "/>
	<path fill="none" fill-rule="evenodd" stroke-width="1.00014" stroke-linejoin="round" stroke="#000000" stroke-opacity="1" d="M 504.252,46.7428L 506.418,43.738L 502.113,43.7243L 504.252,46.7428 Z M 509.627,46.7599L 511.793,43.7551L 507.488,43.7414L 509.627,46.7599 Z M 506.98,44.0752L 504.815,47.08L 509.12,47.0937L 506.98,44.0752 Z M 512.318,44.0732L 510.153,47.0779L 514.458,47.0916L 512.318,44.0732 Z M 501.551,44.039L 499.385,47.0438L 503.69,47.0575L 501.551,44.039 Z M 506.925,57.0319L 509.118,47.5576L 504.813,47.5439L 506.925,57.0319 Z M 506.26,56.4628L 499.349,47.5453L 504.25,47.5608L 506.26,56.4628 Z M 507.594,56.4437L 514.582,47.5703L 509.68,47.5547L 507.594,56.4437 Z "/>
	<path fill="none" fill-rule="evenodd" stroke-width="1.00014" stroke-linejoin="round" stroke="#000000" stroke-opacity="1" d="M 484.499,31.9159L 485.286,29.9659L 482.635,30.6178L 484.499,31.9159 Z M 487.809,31.1019L 488.596,29.1519L 485.945,29.8039L 487.809,31.1019 Z M 485.693,30.0613L 484.907,32.0113L 487.557,31.3594L 485.693,30.0613 Z M 488.977,29.2427L 488.19,31.1927L 490.841,30.5407L 488.977,29.2427 Z M 482.346,30.8735L 481.559,32.8234L 484.21,32.1715L 482.346,30.8735 Z M 488.011,37.0481L 487.64,31.6095L 484.99,32.2614L 488.011,37.0481 Z M 487.499,36.8434L 481.628,33.0992L 484.646,32.3568L 487.499,36.8434 Z M 488.316,36.6288L 491.004,30.7795L 487.986,31.5218L 488.316,36.6288 Z "/>
	<path fill="none" fill-rule="evenodd" stroke-width="1.00014" stroke-linejoin="round" stroke="#000000" stroke-opacity="1" d="M 241.642,92.799L 239.938,91.3467L 239.478,93.6867L 241.642,92.799 Z M 242.218,89.8771L 240.514,88.4248L 240.053,90.7648L 242.218,89.8771 Z M 240.214,91.0714L 241.918,92.5237L 242.379,90.1837L 240.214,91.0714 Z M 240.773,88.1679L 242.477,89.6201L 242.938,87.2801L 240.773,88.1679 Z M 239.621,94.0214L 241.325,95.4737L 241.785,93.1337L 239.621,94.0214 Z M 248.536,92.2858L 242.677,90.2272L 242.216,92.5672L 248.536,92.2858 Z M 248.1,92.5955L 241.643,95.5395L 242.168,92.875L 248.1,92.5955 Z M 248.228,91.868L 243.259,87.2564L 242.734,89.921L 248.228,91.868 Z "/>
	<path fill="none" fill-rule="evenodd" stroke-width="1.00014" stroke-linejoin="round" stroke="#000000" stroke-opacity="1" d="M 533.431,69.3831L 535.673,68.6515L 533.392,67.3192L 533.431,69.3831 Z M 536.28,71.0468L 538.522,70.3152L 536.241,68.9828L 536.28,71.0468 Z M 535.85,68.9818L 533.608,69.7134L 535.889,71.0457L 535.85,68.9818 Z M 538.686,70.6252L 536.444,71.3568L 538.725,72.6891L 538.686,70.6252 Z M 532.979,67.2924L 530.737,68.024L 533.018,69.3563L 532.979,67.2924 Z M 531.112,74.9952L 535.72,71.261L 533.438,69.9287L 531.112,74.9952 Z M 530.966,74.5255L 530.535,68.2461L 533.133,69.7631L 530.966,74.5255 Z M 531.681,74.9276L 538.617,72.95L 536.019,71.433L 531.681,74.9276 Z "/>
	<path fill="none" fill-rule="evenodd" stroke-width="1.00014" stroke-linejoin="round" stroke="#000000" stroke-opacity="1" d="M 191.538,59.6527L 188.859,56.9724L 187.551,60.5031L 191.538,59.6527 Z M 193.171,55.2439L 190.492,52.5636L 189.184,56.0944L 193.171,55.2439 Z M 189.401,56.6115L 192.08,59.2918L 193.388,55.761L 189.401,56.6115 Z M 191.002,52.2273L 193.681,54.9077L 194.989,51.3769L 191.002,52.2273 Z M 187.731,61.0595L 190.41,63.7399L 191.718,60.2091L 187.731,61.0595 Z M 203.74,60.5477L 193.902,55.9019L 192.594,59.4327L 203.74,60.5477 Z M 202.91,60.9228L 190.954,63.9206L 192.443,59.9002L 202.91,60.9228 Z M 203.289,59.8215L 195.556,51.4188L 194.067,55.4391L 203.289,59.8215 Z "/>
	<path fill="none" fill-rule="evenodd" stroke-width="1.00014" stroke-linejoin="round" stroke="#000000" stroke-opacity="1" d="M 237.953,77.3919L 241.94,76.5457L 238.873,73.9458L 237.953,77.3919 Z M 241.783,80.6384L 245.771,79.7922L 242.703,77.1923L 241.783,80.6384 Z M 242.069,77.1255L 238.081,77.9717L 241.149,80.5716L 242.069,77.1255 Z M 245.889,80.3361L 241.901,81.1823L 244.968,83.7822L 245.889,80.3361 Z M 238.215,73.8324L 234.227,74.6786L 237.295,77.2785L 238.215,73.8324 Z M 231.511,86.3589L 240.771,80.9023L 237.703,78.3023L 231.511,86.3589 Z M 231.497,85.5517L 233.794,75.0152L 237.287,77.9756L 231.497,85.5517 Z M 232.467,86.3409L 244.668,84.1991L 241.175,81.2387L 232.467,86.3409 Z "/>
	<path fill="none" fill-rule="evenodd" stroke-width="1.00014" stroke-linejoin="round" stroke="#000000" stroke-opacity="1" d="M 96.5609,49.233L 101.144,51.7464L 101.502,47.2853L 96.5609,49.233 Z M 96.1144,54.8035L 100.698,57.3169L 101.055,52.8558L 96.1144,54.8035 Z M 100.567,52.2997L 95.9837,49.7862L 95.6261,54.2473L 100.567,52.2997 Z M 100.154,57.8336L 95.5703,55.3201L 95.2128,59.7812L 100.154,57.8336 Z M 101.048,46.674L 96.4646,44.1606L 96.1071,48.6217L 101.048,46.674 Z M 80.0787,51.0827L 94.8926,54.2038L 95.2501,49.7426L 80.0787,51.0827 Z M 81.0307,50.4444L 95.6743,44.0777L 95.2673,49.1574L 81.0307,50.4444 Z M 80.9569,51.8292L 94.4461,59.8669L 94.8532,54.7872L 80.9569,51.8292 Z "/>
	<path fill="none" fill-rule="evenodd" stroke-width="1.00014" stroke-linejoin="round" stroke="#000000" stroke-opacity="1" d="M 144.011,45.855L 147.805,44.5005L 144.317,42.3288L 144.011,45.855 Z M 148.366,48.5669L 152.16,47.2123L 148.672,45.0406L 148.366,48.5669 Z M 148.034,45.0569L 144.24,46.4115L 147.728,48.5832L 148.034,45.0569 Z M 152.372,47.7347L 148.578,49.0892L 152.066,51.261L 152.372,47.7347 Z M 143.647,42.3021L 139.853,43.6566L 143.341,45.8283L 143.647,42.3021 Z M 139.215,55.5562L 147.412,48.9591L 143.924,46.7874L 139.215,55.5562 Z M 139.06,54.76L 139.483,44.0456L 143.455,46.5185L 139.06,54.76 Z M 140.157,55.4142L 151.843,51.712L 147.871,49.2392L 140.157,55.4142 Z "/>
	<path fill="none" fill-rule="evenodd" stroke-width="1.00014" stroke-linejoin="round" stroke="#000000" stroke-opacity="1" d="M 161.427,53.9717L 160.539,52.0543L 159.031,54.0409L 161.427,53.9717 Z M 163.311,51.4911L 162.423,49.5737L 160.914,51.5603L 163.311,51.4911 Z M 160.92,51.8968L 161.808,53.8143L 163.316,51.8277L 160.92,51.8968 Z M 162.78,49.4274L 163.668,51.3449L 165.176,49.3583L 162.78,49.4274 Z M 159.007,54.3969L 159.895,56.3144L 161.403,54.3278L 159.007,54.3969 Z M 167.985,55.8726L 163.569,51.9699L 162.061,53.9566L 167.985,55.8726 Z M 167.442,56.0066L 160.156,56.4843L 161.874,54.2222L 167.442,56.0066 Z M 167.896,55.3837L 165.481,49.4469L 163.764,51.7089L 167.896,55.3837 Z "/>
	<path fill="none" fill-rule="evenodd" stroke-width="1.00014" stroke-linejoin="round" stroke="#000000" stroke-opacity="1" d="M 155.729,40.2509L 157.539,37.0768L 153.254,37.429L 155.729,40.2509 Z M 161.08,39.8111L 162.89,36.637L 158.605,36.9892L 161.08,39.8111 Z M 158.138,37.3645L 156.328,40.5386L 160.613,40.1864L 158.138,37.3645 Z M 163.45,36.9088L 161.64,40.0829L 165.925,39.7307L 163.45,36.9088 Z M 152.731,37.79L 150.92,40.9641L 155.206,40.6119L 152.731,37.79 Z M 159.569,50.2627L 160.664,40.6482L 156.379,41.0005L 159.569,50.2627 Z M 158.842,49.7528L 150.941,41.4663L 155.821,41.0652L 158.842,49.7528 Z M 160.167,49.6204L 166.103,40.1964L 161.224,40.5975L 160.167,49.6204 Z "/>
	<path fill="none" fill-rule="evenodd" stroke-width="1.00014" stroke-linejoin="round" stroke="#000000" stroke-opacity="1" d="M 114.523,54.0825L 112.584,52.8682L 112.539,55.2413L 114.523,54.0825 Z M 114.58,51.1193L 112.641,49.905L 112.596,52.278L 114.58,51.1193 Z M 112.809,52.5602L 114.748,53.7746L 114.793,51.4015L 112.809,52.5602 Z M 112.853,49.6172L 114.791,50.8316L 114.837,48.4585L 112.853,49.6172 Z M 112.739,55.5535L 114.678,56.7679L 114.723,54.3948L 112.739,55.5535 Z M 121.248,52.6797L 115.095,51.4057L 115.05,53.7788L 121.248,52.6797 Z M 120.871,53.0423L 115.004,56.7915L 115.056,54.0894L 120.871,53.0423 Z M 120.87,52.3067L 115.15,48.3935L 115.098,51.0956L 120.87,52.3067 Z "/>
	<path fill="none" fill-rule="evenodd" stroke-width="1.00014" stroke-linejoin="round" stroke="#000000" stroke-opacity="1" d="M 108.842,39.3289L 112.464,37.6614L 108.746,35.7938L 108.842,39.3289 Z M 113.484,41.661L 117.106,39.9936L 113.388,38.1259L 113.484,41.661 Z M 112.755,38.196L 109.133,39.8633L 112.851,41.731L 112.755,38.196 Z M 117.376,40.4956L 113.754,42.163L 117.472,44.0307L 117.376,40.4956 Z M 108.076,35.8237L 104.454,37.491L 108.172,39.3587L 108.076,35.8237 Z M 105.17,49.3871L 112.579,42.1317L 108.861,40.2641L 105.17,49.3871 Z M 104.925,48.6078L 104.13,37.9093L 108.364,40.0359L 104.925,48.6078 Z M 106.091,49.1664L 117.301,44.4984L 113.068,42.3718L 106.091,49.1664 Z "/>
	<path fill="none" fill-rule="evenodd" stroke-width="1.00014" stroke-linejoin="round" stroke="#000000" stroke-opacity="1" d="M 195.019,67.142L 196.86,65.82L 194.199,65.2025L 195.019,67.142 Z M 198.343,67.9131L 200.184,66.591L 197.522,65.9735L 198.343,67.9131 Z M 197.152,66.0826L 195.311,67.4046L 197.973,68.0221L 197.152,66.0826 Z M 200.457,66.838L 198.615,68.16L 201.277,68.7775L 200.457,66.838 Z M 193.798,65.2934L 191.956,66.6154L 194.618,67.2329L 193.798,65.2934 Z M 194.956,73.0986L 197.894,68.2733L 195.232,67.6558L 194.956,73.0986 Z M 194.64,72.6959L 191.85,66.8821L 194.881,67.5852L 194.64,72.6959 Z M 195.468,72.8745L 201.274,69.0545L 198.243,68.3514L 195.468,72.8745 Z "/>
	<path fill="none" fill-rule="evenodd" stroke-width="1.00014" stroke-linejoin="round" stroke="#000000" stroke-opacity="1" d="M 227.638,80L 226.045,81.5428L 228.784,81.813L 227.638,80 Z M 224.218,79.6624L 222.625,81.2053L 225.364,81.4756L 224.218,79.6624 Z M 225.711,81.3205L 227.304,79.7776L 224.565,79.5074L 225.711,81.3205 Z M 222.313,80.9959L 223.906,79.4531L 221.167,79.1828L 222.313,80.9959 Z M 229.164,81.672L 230.757,80.1292L 228.018,79.8589L 229.164,81.672 Z M 226.672,74.1015L 224.599,79.2489L 227.338,79.5192L 226.672,74.1015 Z M 227.055,74.4593L 230.816,79.8519L 227.698,79.5441L 227.055,74.4593 Z M 226.204,74.3886L 221.122,78.9085L 224.241,79.2162L 226.204,74.3886 Z "/>
	<radialGradient id="SVGID_Fill14_" cx="33.1614" cy="89.7211" r="10.3148" gradientUnits="userSpaceOnUse">
		<stop offset="0" stop-color="#FCFFFF" stop-opacity="1"/>
		<stop offset="1" stop-color="#00DCFC" stop-opacity="1"/>
	</radialGradient>
	<path fill="url(#SVGID_Fill14_)" fill-rule="evenodd" stroke-width="1.00014" stroke-linejoin="round" stroke="#000000" stroke-opacity="1" d="M 28.7806,90.2515L 27.0819,85.8073L 23.5238,89.0651L 28.7806,90.2515 Z M 33.2235,86.1837L 31.5249,81.7396L 27.9668,84.9973L 33.2235,86.1837 Z M 27.9356,85.6939L 29.6342,90.1381L 33.1924,86.8803L 27.9356,85.6939 Z M 32.326,81.6363L 34.0246,86.0805L 37.5827,82.8228L 32.326,81.6363 Z M 23.4254,89.7856L 25.124,94.2297L 28.6822,90.972L 23.4254,89.7856 Z M 42.8974,97.8058L 33.728,87.3139L 30.17,90.5717L 42.8974,97.8058 Z M 41.6911,97.7808L 25.6747,94.7248L 29.7262,91.0153L 41.6911,97.7808 Z M 42.7668,96.7493L 38.239,83.1744L 34.1876,86.8839L 42.7668,96.7493 Z "/>
	<radialGradient id="SVGID_Fill15_" cx="17.2636" cy="129.742" r="11.4653" gradientUnits="userSpaceOnUse">
		<stop offset="0" stop-color="#FCFFFF" stop-opacity="1"/>
		<stop offset="1" stop-color="#FF03BE" stop-opacity="1"/>
	</radialGradient>
	<path fill="url(#SVGID_Fill15_)" fill-rule="evenodd" stroke-width="1.00014" stroke-linejoin="round" stroke="#000000" stroke-opacity="1" d="M 11.5324,132.327L 7.28851,129.405L 6.37717,133.807L 11.5324,132.327 Z M 12.6705,126.83L 8.42657,123.908L 7.51523,128.31L 12.6705,126.83 Z M 7.9314,128.908L 12.1753,131.83L 13.0867,127.428L 7.9314,128.908 Z M 9.03191,123.444L 13.2758,126.367L 14.1872,121.964L 9.03191,123.444 Z M 6.75218,134.457L 10.996,137.379L 11.9075,132.977L 6.75218,134.457 Z M 28.15,132.01L 13.8105,127.539L 12.8992,131.942L 28.15,132.01 Z M 27.1239,132.557L 11.7715,137.535L 12.8092,132.522L 27.1239,132.557 Z M 27.3699,131.187L 14.96,121.95L 13.9223,126.963L 27.3699,131.187 Z "/>
	<path fill="none" fill-rule="evenodd" stroke-width="1.00014" stroke-linejoin="round" stroke="#000000" stroke-opacity="1" d="M 26.9129,183.072L 22.3124,185.563L 26.8424,187.751L 26.9129,183.072 Z M 21.2564,180.341L 16.656,182.831L 21.186,185.019L 21.2564,180.341 Z M 21.9788,184.877L 26.5793,182.387L 22.0493,180.199L 21.9788,184.877 Z M 16.3465,182.187L 20.947,179.696L 16.417,177.508L 16.3465,182.187 Z M 27.6784,187.659L 32.2789,185.169L 27.7489,182.981L 27.6784,187.659 Z M 32.0264,169.456L 22.409,179.647L 26.939,181.834L 32.0264,169.456 Z M 32.289,170.47L 32.7042,184.589L 27.546,182.098L 32.289,170.47 Z M 30.8669,169.82L 16.6552,176.875L 21.8134,179.366L 30.8669,169.82 Z "/>
	<path fill="none" fill-rule="evenodd" stroke-width="1.00014" stroke-linejoin="round" stroke="#000000" stroke-opacity="1" d="M 42.7673,202.773L 37.4778,201.7L 38.8475,206.014L 42.7673,202.773 Z M 41.0571,197.387L 35.7677,196.314L 37.1373,200.628L 41.0571,197.387 Z M 37.8112,201.014L 43.1006,202.087L 41.731,197.774L 37.8112,201.014 Z M 36.0837,195.672L 41.3731,196.745L 40.0035,192.431L 36.0837,195.672 Z M 39.5099,206.462L 44.7993,207.535L 43.4297,203.222L 39.5099,206.462 Z M 57.6212,196.352L 42.4402,197.607L 43.8098,201.92L 57.6212,196.352 Z M 56.9666,197.224L 45.5772,207.389L 44.0176,202.478L 56.9666,197.224 Z M 56.5063,195.896L 40.6945,192.133L 42.2541,197.045L 56.5063,195.896 Z "/>
	<path fill="none" fill-rule="evenodd" stroke-width="1.00014" stroke-linejoin="round" stroke="#000000" stroke-opacity="1" d="M 20.016,156.977L 23.6944,153.533L 18.6558,152.447L 20.016,156.977 Z M 26.3076,158.332L 29.986,154.888L 24.9474,153.803L 26.3076,158.332 Z M 24.2258,154.119L 20.5473,157.563L 25.586,158.649L 24.2258,154.119 Z M 30.4814,155.44L 26.8029,158.884L 31.8416,159.97L 30.4814,155.44 Z M 17.8771,152.724L 14.1987,156.168L 19.2374,157.254L 17.8771,152.724 Z M 19.2393,171.271L 25.4075,159.263L 20.3688,158.177L 19.2393,171.271 Z M 18.6763,170.352L 13.9652,156.823L 19.7025,158.06L 18.6763,170.352 Z M 20.2469,170.658L 31.8051,160.635L 26.0677,159.398L 20.2469,170.658 Z "/>
	<path fill="none" fill-rule="evenodd" stroke-width="1.00014" stroke-linejoin="round" stroke="#000000" stroke-opacity="1" d="M 22.9322,117.954L 22.0489,114.501L 18.9535,117.076L 22.9322,117.954 Z M 26.7973,114.738L 25.9139,111.285L 22.8186,113.86L 26.7973,114.738 Z M 22.7253,114.404L 23.6086,117.858L 26.704,115.282L 22.7253,114.404 Z M 26.5484,111.197L 27.4317,114.65L 30.5271,112.075L 26.5484,111.197 Z M 18.8055,117.639L 19.6888,121.093L 22.7841,118.517L 18.8055,117.639 Z M 33.1841,123.721L 27.0785,115.616L 23.9831,118.191L 33.1841,123.721 Z M 32.2465,123.713L 20.0688,121.474L 23.5934,118.541L 32.2465,123.713 Z M 33.187,122.898L 31.0037,112.343L 27.4792,115.276L 33.187,122.898 Z "/>
	<path fill="none" fill-rule="evenodd" stroke-width="1.00014" stroke-linejoin="round" stroke="#000000" stroke-opacity="1" d="M 32.788,105.248L 30.4396,105.664L 32.4467,107.291L 32.788,105.248 Z M 30.2819,103.216L 27.9335,103.632L 29.9405,105.26L 30.2819,103.216 Z M 30.3263,105.314L 32.6748,104.898L 30.6677,103.271L 30.3263,105.314 Z M 27.8289,103.304L 30.1774,102.888L 28.1703,101.261L 27.8289,103.304 Z M 32.8496,107.374L 35.1981,106.958L 33.191,105.331L 32.8496,107.374 Z M 36.1123,100.024L 30.8748,103.081L 32.8819,104.708L 36.1123,100.024 Z M 36.1702,100.508L 35.4382,106.766L 33.1528,104.914L 36.1702,100.508 Z M 35.5377,100.013L 28.3251,101.018L 30.6105,102.871L 35.5377,100.013 Z "/>
	<path fill="none" fill-rule="evenodd" stroke-width="1.00014" stroke-linejoin="round" stroke="#000000" stroke-opacity="1" d="M 15.8952,108.651L 12.5831,106.56L 12.234,110.254L 15.8952,108.651 Z M 16.3311,104.039L 13.019,101.948L 12.6699,105.641L 16.3311,104.039 Z M 13.0172,106.103L 16.3293,108.194L 16.6784,104.5L 13.0172,106.103 Z M 13.428,101.521L 16.7401,103.612L 17.0892,99.9184L 13.428,101.521 Z M 12.5549,110.761L 15.867,112.852L 16.2161,109.158L 12.5549,110.761 Z M 28.0175,107.154L 17.2154,104.538L 16.8663,108.232L 28.0175,107.154 Z M 27.307,107.68L 16.4449,112.922L 16.8424,108.716L 27.307,107.68 Z M 27.3881,106.534L 17.653,99.849L 17.2556,104.055L 27.3881,106.534 Z "/>
	<path fill="none" fill-rule="evenodd" stroke-width="1.00014" stroke-linejoin="round" stroke="#000000" stroke-opacity="1" d="M 22.609,143.691L 20.8802,145.121L 23.586,145.576L 22.609,143.691 Z M 19.2305,143.123L 17.5017,144.553L 20.2074,145.008L 19.2305,143.123 Z M 20.5675,144.877L 22.2963,143.447L 19.5905,142.992L 20.5675,144.877 Z M 17.2098,144.324L 18.9386,142.893L 16.2329,142.438L 17.2098,144.324 Z M 23.9782,145.461L 25.707,144.031L 23.0013,143.576L 23.9782,145.461 Z M 22.1847,137.745L 19.6484,142.737L 22.3541,143.191L 22.1847,137.745 Z M 22.5334,138.128L 25.7913,143.758L 22.7104,143.241L 22.5334,138.128 Z M 21.6919,138L 16.2134,142.162L 19.2943,142.68L 21.6919,138 Z "/>
	<path fill="none" fill-rule="evenodd" stroke-width="1.00014" stroke-linejoin="round" stroke="#000000" stroke-opacity="1" d="M 4.62682,146.483L 3.74345,143.03L 0.64814,145.605L 4.62682,146.483 Z M 8.49187,143.267L 7.60852,139.814L 4.51321,142.389L 8.49187,143.267 Z M 4.41992,142.933L 5.30324,146.387L 8.39857,143.811L 4.41992,142.933 Z M 8.243,139.726L 9.12631,143.179L 12.2217,140.604L 8.243,139.726 Z M 0.500076,146.168L 1.38339,149.622L 4.47873,147.046L 0.500076,146.168 Z M 14.8787,152.25L 8.77305,144.145L 5.67773,146.72L 14.8787,152.25 Z M 13.9411,152.242L 1.76344,150.003L 5.28796,147.071L 13.9411,152.242 Z M 14.8816,151.427L 12.6983,140.872L 9.17375,143.805L 14.8816,151.427 Z "/>
	<path fill="none" fill-rule="evenodd" stroke-width="1.00014" stroke-linejoin="round" stroke="#000000" stroke-opacity="1" d="M 50.9372,90.1248L 50.8772,92.1883L 53.1718,90.8729L 50.9372,90.1248 Z M 48.0719,91.7673L 48.0119,93.8308L 50.3065,92.5154L 48.0719,91.7673 Z M 50.4553,92.2041L 50.5154,90.1406L 48.2207,91.456L 50.4553,92.2041 Z M 47.6166,93.8442L 47.6767,91.7807L 45.382,93.0961L 47.6166,93.8442 Z M 53.3567,90.5537L 53.4168,88.4901L 51.1221,89.8056L 53.3567,90.5537 Z M 45.7775,86.156L 48.0532,91.2395L 50.3479,89.9241L 45.7775,86.156 Z M 46.338,86.2167L 53.2541,88.2455L 50.6413,89.7433L 46.338,86.2167 Z M 45.6353,86.6353L 45.1422,92.9114L 47.7551,91.4135L 45.6353,86.6353 Z "/>
	<path fill="none" fill-rule="evenodd" stroke-width="1.00014" stroke-linejoin="round" stroke="#000000" stroke-opacity="1" d="M 69.8129,76.3292L 65.7643,75.7341L 67.3708,79.1723L 69.8129,76.3292 Z M 67.807,72.036L 63.7583,71.441L 65.3648,74.8791L 67.807,72.036 Z M 65.9152,75.1583L 69.9638,75.7534L 68.3573,72.3152L 65.9152,75.1583 Z M 63.9025,70.9018L 67.9511,71.4969L 66.3446,68.0587L 63.9025,70.9018 Z M 67.9212,79.5024L 71.9699,80.0975L 70.3634,76.6593L 67.9212,79.5024 Z M 79.8776,70.3226L 68.8572,72.1421L 70.4637,75.5802L 79.8776,70.3226 Z M 79.5157,71.0672L 72.5234,79.9379L 70.6941,76.023L 79.5157,71.0672 Z M 78.9926,70.0103L 66.8129,67.7796L 68.6422,71.6945L 78.9926,70.0103 Z "/>
	<path fill="none" fill-rule="evenodd" stroke-width="1.00014" stroke-linejoin="round" stroke="#000000" stroke-opacity="1" d="M 65.6604,208.019L 60.3089,207.205L 61.9594,211.445L 65.6604,208.019 Z M 63.5995,202.725L 58.248,201.911L 59.8986,206.151L 63.5995,202.725 Z M 60.5967,206.504L 65.9482,207.318L 64.2977,203.078L 60.5967,206.504 Z M 58.5214,201.255L 63.8728,202.069L 62.2224,197.829L 58.5214,201.255 Z M 62.6502,211.861L 68.0017,212.675L 66.3512,208.435L 62.6502,211.861 Z M 80.0694,200.886L 64.9948,202.877L 66.6453,207.117L 80.0694,200.886 Z M 79.4731,201.789L 68.7688,212.491L 66.8894,207.664L 79.4731,201.789 Z M 78.9264,200.485L 62.8927,197.497L 64.7721,202.325L 78.9264,200.485 Z "/>
	<radialGradient id="SVGID_Fill16_" cx="78.1574" cy="224.773" r="10.5342" gradientUnits="userSpaceOnUse">
		<stop offset="0" stop-color="#FCFFFF" stop-opacity="1"/>
		<stop offset="0.599998" stop-color="#9A1FD2" stop-opacity="1"/>
	</radialGradient>
	<path fill="url(#SVGID_Fill16_)" fill-rule="evenodd" stroke-width="1.00014" stroke-linejoin="round" stroke="#000000" stroke-opacity="1" d="M 77.7133,228.101L 72.3852,229.022L 75.7167,232.453L 77.7133,228.101 Z M 73.5535,223.818L 68.2253,224.738L 71.5568,228.169L 73.5535,223.818 Z M 72.3564,228.279L 77.6845,227.358L 74.3531,223.927L 72.3564,228.279 Z M 68.2021,224.041L 73.5302,223.12L 70.1988,219.69L 68.2021,224.041 Z M 76.5358,232.623L 81.8639,231.703L 78.5325,228.272L 76.5358,232.623 Z M 88.1128,216.938L 74.9172,223.521L 78.2487,226.952L 88.1128,216.938 Z M 87.9397,217.966L 82.5006,231.291L 78.7072,227.385L 87.9397,217.966 Z M 86.8788,216.924L 70.6827,219.171L 74.4762,223.077L 86.8788,216.924 Z "/>
	<path fill="none" fill-rule="evenodd" stroke-width="1.00014" stroke-linejoin="round" stroke="#000000" stroke-opacity="1" d="M 124.173,247.875L 120.296,251.153L 125.264,252.458L 124.173,247.875 Z M 117.97,246.245L 114.093,249.523L 119.061,250.828L 117.97,246.245 Z M 119.8,250.544L 123.677,247.266L 118.71,245.96L 119.8,250.544 Z M 113.631,248.95L 117.508,245.672L 112.54,244.367L 113.631,248.95 Z M 126.058,252.215L 129.935,248.937L 124.967,247.632L 126.058,252.215 Z M 125.795,233.633L 118.924,245.355L 123.892,246.66L 125.795,233.633 Z M 126.303,234.575L 130.207,248.293L 124.551,246.807L 126.303,234.575 Z M 124.752,234.201L 112.616,243.704L 118.273,245.191L 124.752,234.201 Z "/>
	<path fill="none" fill-rule="evenodd" stroke-width="1.00014" stroke-linejoin="round" stroke="#000000" stroke-opacity="1" d="M 184.532,240.795L 186.854,245.025L 189.919,241.415L 184.532,240.795 Z M 180.706,245.303L 183.028,249.533L 186.092,245.923L 180.706,245.303 Z M 186.023,245.228L 183.701,240.998L 180.637,244.609L 186.023,245.228 Z M 182.247,249.721L 179.926,245.491L 176.861,249.101L 182.247,249.721 Z M 189.913,240.689L 187.591,236.459L 184.527,240.07L 189.913,240.689 Z M 169.442,234.796L 180.043,244.235L 183.108,240.625L 169.442,234.796 Z M 170.642,234.693L 186.974,236.026L 183.485,240.137L 170.642,234.693 Z M 169.722,235.831L 176.159,248.822L 179.649,244.711L 169.722,235.831 Z "/>
	<radialGradient id="SVGID_Fill17_" cx="205.755" cy="225.472" r="9.83586" gradientUnits="userSpaceOnUse">
		<stop offset="0" stop-color="#FCFFFF" stop-opacity="1"/>
		<stop offset="1" stop-color="#FF03BE" stop-opacity="1"/>
	</radialGradient>
	<path fill="url(#SVGID_Fill17_)" fill-rule="evenodd" stroke-width="1.00014" stroke-linejoin="round" stroke="#000000" stroke-opacity="1" d="M 209.147,229.599L 207.277,233.992L 212.415,233.337L 209.147,229.599 Z M 202.731,230.417L 200.861,234.809L 205.999,234.154L 202.731,230.417 Z M 206.526,233.625L 208.396,229.232L 203.258,229.887L 206.526,233.625 Z M 200.159,234.463L 202.028,230.07L 196.89,230.725L 200.159,234.463 Z M 213.011,232.824L 214.881,228.431L 209.743,229.086L 213.011,232.824 Z M 203.517,216.134L 203.15,229.261L 208.288,228.606L 203.517,216.134 Z M 204.446,216.798L 214.806,227.749L 208.956,228.495L 204.446,216.798 Z M 202.859,217.033L 196.629,230.098L 202.479,229.352L 202.859,217.033 Z "/>
	<path fill="none" fill-rule="evenodd" stroke-width="1.00014" stroke-linejoin="round" stroke="#000000" stroke-opacity="1" d="M 153.614,243.57L 150.082,240.014L 148.227,244.191L 153.614,243.57 Z M 155.929,238.355L 152.398,234.799L 150.543,238.976L 155.929,238.355 Z M 150.822,239.63L 154.353,243.186L 156.208,239.009L 150.822,239.63 Z M 153.093,234.441L 156.625,237.997L 158.479,233.82L 153.093,234.441 Z M 148.454,244.89L 151.986,248.446L 153.84,244.269L 148.454,244.89 Z M 170.005,245.943L 156.895,239.235L 155.04,243.412L 170.005,245.943 Z M 168.878,246.314L 152.714,248.724L 154.825,243.968L 168.878,246.314 Z M 169.418,245.009L 159.242,233.931L 157.13,238.687L 169.418,245.009 Z "/>
	<path fill="none" fill-rule="evenodd" stroke-width="1.00014" stroke-linejoin="round" stroke="#000000" stroke-opacity="1" d="M 108.961,236.412L 104.873,236.755L 107.473,239.708L 108.961,236.412 Z M 105.715,232.724L 101.627,233.066L 104.226,236.02L 105.715,232.724 Z M 104.843,236.165L 108.931,235.823L 106.331,232.869L 104.843,236.165 Z M 101.601,232.514L 105.689,232.171L 103.089,229.218L 101.601,232.514 Z M 108.105,239.902L 112.193,239.56L 109.593,236.606L 108.105,239.902 Z M 116.837,228.339L 106.76,232.589L 109.36,235.542L 116.837,228.339 Z M 116.715,229.139L 112.678,239.281L 109.717,235.917L 116.715,229.139 Z M 115.888,228.238L 103.456,228.842L 106.416,232.206L 115.888,228.238 Z "/>
	<path fill="none" fill-rule="evenodd" stroke-width="1.00014" stroke-linejoin="round" stroke="#000000" stroke-opacity="1" d="M 95.4867,226.468L 95.6858,228.525L 97.802,227.004L 95.4867,226.468 Z M 92.8441,228.367L 93.0432,230.424L 95.1595,228.903L 92.8441,228.367 Z M 95.2683,228.58L 95.0693,226.523L 92.953,228.044L 95.2683,228.58 Z M 92.6519,230.474L 92.4529,228.417L 90.3366,229.938L 92.6519,230.474 Z M 97.9458,226.67L 97.7468,224.613L 95.6305,226.134L 97.9458,226.67 Z M 89.8594,223.002L 92.7593,227.844L 94.8756,226.323L 89.8594,223.002 Z M 90.4242,223.01L 97.5543,224.385L 95.1446,226.116L 90.4242,223.01 Z M 89.7781,223.492L 90.075,229.777L 92.4847,228.045L 89.7781,223.492 Z "/>
	<path fill="none" fill-rule="evenodd" stroke-width="1.00014" stroke-linejoin="round" stroke="#000000" stroke-opacity="1" d="M 97.3914,241.315L 94.584,243.896L 98.8019,244.636L 97.3914,241.315 Z M 92.1246,240.391L 89.3172,242.972L 93.5351,243.712L 92.1246,240.391 Z M 94.1089,243.47L 96.9164,240.889L 92.6985,240.149L 94.1089,243.47 Z M 88.874,242.571L 91.6815,239.99L 87.4636,239.25L 88.874,242.571 Z M 99.4252,244.422L 102.233,241.841L 98.0147,241.101L 99.4252,244.422 Z M 97.1139,230.774L 92.806,239.695L 97.0239,240.435L 97.1139,230.774 Z M 97.6363,231.445L 102.383,241.356L 97.58,240.513L 97.6363,231.445 Z M 96.3236,231.238L 87.451,238.76L 92.2538,239.603L 96.3236,231.238 Z "/>
	<path fill="none" fill-rule="evenodd" stroke-width="1.00014" stroke-linejoin="round" stroke="#000000" stroke-opacity="1" d="M 138.603,239.766L 140.045,241.414L 140.893,239.156L 138.603,239.766 Z M 137.544,242.585L 138.986,244.234L 139.834,241.976L 137.544,242.585 Z M 139.726,241.652L 138.284,240.004L 137.436,242.262L 139.726,241.652 Z M 138.686,244.456L 137.244,242.807L 136.396,245.066L 138.686,244.456 Z M 140.808,238.807L 139.365,237.158L 138.517,239.417L 140.808,238.807 Z M 131.695,239.417L 137.148,242.182L 137.996,239.924L 131.695,239.417 Z M 132.178,239.165L 139.061,237.054L 138.095,239.625L 132.178,239.165 Z M 131.93,239.869L 136.075,245.049L 137.04,242.478L 131.93,239.869 Z "/>
	<radialGradient id="SVGID_Fill18_" cx="139.931" cy="253.127" r="8.19699" gradientUnits="userSpaceOnUse">
		<stop offset="0" stop-color="#FCFFFF" stop-opacity="1"/>
		<stop offset="1" stop-color="#00DCFC" stop-opacity="1"/>
	</radialGradient>
	<path fill="url(#SVGID_Fill18_)" fill-rule="evenodd" stroke-width="1.00014" stroke-linejoin="round" stroke="#000000" stroke-opacity="1" d="M 139.672,255.47L 135.585,255.812L 138.184,258.765L 139.672,255.47 Z M 136.426,251.781L 132.338,252.124L 134.938,255.077L 136.426,251.781 Z M 135.554,255.222L 139.642,254.88L 137.042,251.926L 135.554,255.222 Z M 132.313,251.571L 136.401,251.229L 133.801,248.275L 132.313,251.571 Z M 138.816,258.959L 142.904,258.617L 140.304,255.664L 138.816,258.959 Z M 147.549,247.396L 137.472,251.646L 140.072,254.6L 147.549,247.396 Z M 147.427,248.197L 143.39,258.338L 140.429,254.975L 147.427,248.197 Z M 146.6,247.295L 134.167,247.9L 137.128,251.263L 146.6,247.295 Z "/>
	<path fill="none" fill-rule="evenodd" stroke-width="1.00014" stroke-linejoin="round" stroke="#000000" stroke-opacity="1" d="M 80.2162,209.148L 82.5887,209.446L 81.3461,207.327L 80.2162,209.148 Z M 81.7678,211.793L 84.1403,212.091L 82.8977,209.973L 81.7678,211.793 Z M 82.5565,209.808L 80.184,209.51L 81.4266,211.629L 82.5565,209.808 Z M 84.1085,212.431L 81.736,212.133L 82.9786,214.251L 84.1085,212.431 Z M 81.0001,207.131L 78.6276,206.833L 79.8702,208.952L 81.0001,207.131 Z M 75.0225,213.084L 81.1569,211.746L 79.9143,209.628L 75.0225,213.084 Z M 75.1595,212.612L 78.3259,206.943L 79.7408,209.355L 75.1595,212.612 Z M 75.5582,213.263L 82.7369,214.434L 81.322,212.022L 75.5582,213.263 Z "/>
	<radialGradient id="SVGID_Fill19_" cx="42.7667" cy="182.732" r="8.66158" gradientUnits="userSpaceOnUse">
		<stop offset="0" stop-color="#FCFFFF" stop-opacity="1"/>
		<stop offset="1" stop-color="#00DCFC" stop-opacity="1"/>
	</radialGradient>
	<path fill="url(#SVGID_Fill19_)" fill-rule="evenodd" stroke-width="1.00014" stroke-linejoin="round" stroke="#000000" stroke-opacity="1" d="M 40.5144,179.244L 43.759,177.076L 39.7291,175.773L 40.5144,179.244 Z M 45.5463,180.87L 48.7909,178.702L 44.761,177.4L 45.5463,180.87 Z M 44.1502,177.56L 40.9056,179.728L 44.9354,181.031L 44.1502,177.56 Z M 49.1552,179.158L 45.9106,181.326L 49.9405,182.629L 49.1552,179.158 Z M 39.0746,175.899L 35.83,178.067L 39.8598,179.37L 39.0746,175.899 Z M 38.86,189.69L 44.7461,181.466L 40.7162,180.163L 38.86,189.69 Z M 38.4668,188.957L 35.5928,178.526L 40.1815,180.01L 38.4668,188.957 Z M 39.7253,189.339L 49.8632,183.115L 45.2746,181.631L 39.7253,189.339 Z "/>
	<path fill="none" fill-rule="evenodd" stroke-width="1.00014" stroke-linejoin="round" stroke="#000000" stroke-opacity="1" d="M 52.5183,208.763L 54.5038,207.606L 51.9268,206.763L 52.5183,208.763 Z M 55.736,209.816L 57.7215,208.659L 55.1445,207.816L 55.736,209.816 Z M 54.7639,207.893L 52.7784,209.05L 55.3553,209.893L 54.7639,207.893 Z M 57.9639,208.928L 55.9784,210.086L 58.5553,210.929L 57.9639,208.928 Z M 51.5176,206.819L 49.5321,207.976L 52.1091,208.819L 51.5176,206.819 Z M 51.7652,214.685L 55.248,210.136L 52.6711,209.293L 51.7652,214.685 Z M 51.497,214.257L 49.3954,208.232L 52.3296,209.193L 51.497,214.257 Z M 52.301,214.506L 58.5201,211.204L 55.5858,210.244L 52.301,214.506 Z "/>
	<path fill="none" fill-rule="evenodd" stroke-width="1.00014" stroke-linejoin="round" stroke="#000000" stroke-opacity="1" d="M 345.826,260.94L 341.738,261.282L 344.338,264.236L 345.826,260.94 Z M 342.58,257.252L 338.492,257.594L 341.092,260.548L 342.58,257.252 Z M 341.708,260.693L 345.796,260.35L 343.196,257.397L 341.708,260.693 Z M 338.466,257.041L 342.554,256.699L 339.954,253.746L 338.466,257.041 Z M 344.97,264.43L 349.058,264.088L 346.458,261.134L 344.97,264.43 Z M 353.703,252.867L 343.625,257.117L 346.225,260.07L 353.703,252.867 Z M 353.581,253.667L 349.543,263.808L 346.583,260.445L 353.581,253.667 Z M 352.753,252.766L 340.321,253.37L 343.281,256.733L 352.753,252.766 Z "/>
	<radialGradient id="SVGID_Fill20_" cx="391.229" cy="210.763" r="8.19702" gradientUnits="userSpaceOnUse">
		<stop offset="0" stop-color="#FCFFFF" stop-opacity="1"/>
		<stop offset="1" stop-color="#FF03BE" stop-opacity="1"/>
	</radialGradient>
	<path fill="url(#SVGID_Fill20_)" fill-rule="evenodd" stroke-width="1.00014" stroke-linejoin="round" stroke="#000000" stroke-opacity="1" d="M 390.97,213.105L 386.882,213.448L 389.482,216.401L 390.97,213.105 Z M 387.724,209.417L 383.636,209.759L 386.236,212.713L 387.724,209.417 Z M 386.852,212.858L 390.94,212.516L 388.34,209.562L 386.852,212.858 Z M 383.61,209.207L 387.698,208.864L 385.099,205.911L 383.61,209.207 Z M 390.114,216.595L 394.202,216.253L 391.602,213.299L 390.114,216.595 Z M 398.847,205.032L 388.77,209.282L 391.37,212.235L 398.847,205.032 Z M 398.725,205.832L 394.687,215.974L 391.727,212.611L 398.725,205.832 Z M 397.898,204.931L 385.465,205.536L 388.426,208.899L 397.898,204.931 Z "/>
	<path fill="none" fill-rule="evenodd" stroke-width="1.00014" stroke-linejoin="round" stroke="#000000" stroke-opacity="1" d="M 264.412,216.759L 260.324,217.102L 262.924,220.055L 264.412,216.759 Z M 261.166,213.071L 257.078,213.414L 259.678,216.367L 261.166,213.071 Z M 260.294,216.512L 264.382,216.17L 261.782,213.216L 260.294,216.512 Z M 257.052,212.861L 261.14,212.519L 258.541,209.565L 257.052,212.861 Z M 263.556,220.249L 267.644,219.907L 265.044,216.953L 263.556,220.249 Z M 272.289,208.686L 262.212,212.936L 264.811,215.89L 272.289,208.686 Z M 272.167,209.487L 268.129,219.628L 265.169,216.265L 272.167,209.487 Z M 271.339,208.585L 258.907,209.19L 261.867,212.553L 271.339,208.585 Z "/>
	<path fill="none" fill-rule="evenodd" stroke-width="1.00014" stroke-linejoin="round" stroke="#000000" stroke-opacity="1" d="M 211.165,255.957L 207.077,256.3L 209.677,259.253L 211.165,255.957 Z M 207.919,252.269L 203.831,252.611L 206.431,255.565L 207.919,252.269 Z M 207.047,255.71L 211.135,255.368L 208.535,252.414L 207.047,255.71 Z M 203.805,252.059L 207.893,251.716L 205.293,248.763L 203.805,252.059 Z M 210.309,259.447L 214.397,259.105L 211.797,256.151L 210.309,259.447 Z M 219.042,247.884L 208.965,252.134L 211.564,255.087L 219.042,247.884 Z M 218.92,248.684L 214.882,258.826L 211.922,255.463L 218.92,248.684 Z M 218.092,247.783L 205.66,248.388L 208.62,251.751L 218.092,247.783 Z "/>
	<path fill="none" fill-rule="evenodd" stroke-width="1.00014" stroke-linejoin="round" stroke="#000000" stroke-opacity="1" d="M 225.786,206.057L 225.182,204.059L 223.398,205.869L 225.786,206.057 Z M 228.013,203.797L 227.409,201.8L 225.625,203.609L 228.013,203.797 Z M 225.582,203.944L 226.186,205.942L 227.97,204.132L 225.582,203.944 Z M 227.785,201.693L 228.389,203.691L 230.172,201.881L 227.785,201.693 Z M 223.323,206.22L 223.927,208.217L 225.71,206.408L 223.323,206.22 Z M 232.017,208.646L 228.2,204.3L 226.417,206.11L 232.017,208.646 Z M 231.459,208.72L 224.161,208.414L 226.192,206.353L 231.459,208.72 Z M 232,208.151L 230.462,202.002L 228.431,204.062L 232,208.151 Z "/>
	<path fill="none" fill-rule="evenodd" stroke-width="1.00014" stroke-linejoin="round" stroke="#000000" stroke-opacity="1" d="M 541.386,255.891L 543.602,255.103L 541.277,253.829L 541.386,255.891 Z M 544.29,257.482L 546.507,256.695L 544.181,255.42L 544.29,257.482 Z M 543.79,255.429L 541.574,256.217L 543.899,257.491L 543.79,255.429 Z M 546.681,257L 544.464,257.788L 546.79,259.062L 546.681,257 Z M 540.863,253.813L 538.647,254.6L 540.972,255.875L 540.863,253.813 Z M 539.258,261.559L 543.737,257.711L 541.412,256.436L 539.258,261.559 Z M 539.096,261.093L 538.453,254.827L 541.101,256.278L 539.096,261.093 Z M 539.825,261.477L 546.691,259.326L 544.043,257.875L 539.825,261.477 Z "/>
	<path fill="none" fill-rule="evenodd" stroke-width="1.00014" stroke-linejoin="round" stroke="#000000" stroke-opacity="1" d="M 327.765,190.454L 329.875,189.473L 327.408,188.413L 327.765,190.454 Z M 330.846,191.777L 332.955,190.796L 330.488,189.736L 330.846,191.777 Z M 330.1,189.78L 327.991,190.761L 330.458,191.821L 330.1,189.78 Z M 333.165,191.084L 331.056,192.066L 333.523,193.125L 333.165,191.084 Z M 326.994,188.434L 324.885,189.415L 327.352,190.475L 326.994,188.434 Z M 326.333,196.282L 330.323,192.054L 327.856,190.994L 326.333,196.282 Z M 326.115,195.833L 324.719,189.659L 327.528,190.865L 326.115,195.833 Z M 326.886,196.15L 333.456,193.396L 330.647,192.19L 326.886,196.15 Z "/>
	<path fill="none" fill-rule="evenodd" stroke-width="1.00014" stroke-linejoin="round" stroke="#000000" stroke-opacity="1" d="M 479.164,208.36L 480.355,206.569L 477.61,206.788L 479.164,208.36 Z M 482.591,208.086L 483.783,206.295L 481.037,206.514L 482.591,208.086 Z M 480.735,206.727L 479.544,208.519L 482.289,208.3L 480.735,206.727 Z M 484.138,206.445L 482.946,208.236L 485.691,208.017L 484.138,206.445 Z M 477.271,206.993L 476.08,208.785L 478.825,208.565L 477.271,206.993 Z M 481.514,213.963L 482.316,208.559L 479.572,208.778L 481.514,213.963 Z M 481.055,213.68L 476.088,209.067L 479.214,208.817L 481.055,213.68 Z M 481.904,213.599L 485.801,208.278L 482.675,208.527L 481.904,213.599 Z "/>
	<path fill="none" fill-rule="evenodd" stroke-width="1.00014" stroke-linejoin="round" stroke="#000000" stroke-opacity="1" d="M 281.174,263.157L 279.174,264.296L 281.741,265.163L 281.174,263.157 Z M 277.97,262.074L 275.97,263.213L 278.536,264.08L 277.97,262.074 Z M 278.918,264.007L 280.918,262.868L 278.352,262.001L 278.918,264.007 Z M 275.731,262.941L 277.731,261.803L 275.165,260.936L 275.731,262.941 Z M 282.151,265.111L 284.15,263.972L 281.584,263.105L 282.151,265.111 Z M 282.001,257.243L 278.462,261.759L 281.028,262.626L 282.001,257.243 Z M 282.264,257.673L 284.29,263.717L 281.368,262.73L 282.264,257.673 Z M 281.463,257.417L 275.203,260.661L 278.125,261.648L 281.463,257.417 Z "/>
	<path fill="none" fill-rule="evenodd" stroke-width="1.00014" stroke-linejoin="round" stroke="#000000" stroke-opacity="1" d="M 519.232,67.9055L 520.04,64.4387L 516.002,65.7213L 519.232,67.9055 Z M 524.275,66.304L 525.083,62.8372L 521.045,64.1198L 524.275,66.304 Z M 520.705,64.5853L 519.896,68.0522L 523.935,66.7696L 520.705,64.5853 Z M 525.705,62.977L 524.896,66.4438L 528.935,65.1613L 525.705,62.977 Z M 515.603,66.1854L 514.794,69.6523L 518.833,68.3697L 515.603,66.1854 Z M 525.913,76.7414L 524.121,67.2048L 520.082,68.4874L 525.913,76.7414 Z M 525.059,76.4083L 514.963,70.1331L 519.562,68.6727L 525.059,76.4083 Z M 526.301,75.9888L 529.246,65.5723L 524.647,67.0328L 526.301,75.9888 Z "/>
	<path fill="none" fill-rule="evenodd" stroke-width="1.00014" stroke-linejoin="round" stroke="#000000" stroke-opacity="1" d="M 576.647,97.7608L 579.32,93.7036L 574.127,93.6001L 576.647,97.7608 Z M 583.132,97.8901L 585.804,93.8329L 580.611,93.7294L 583.132,97.8901 Z M 579.992,94.1748L 577.319,98.232L 582.513,98.3356L 579.992,94.1748 Z M 586.432,94.2773L 583.76,98.3344L 588.953,98.438L 586.432,94.2773 Z M 573.442,94.0184L 570.769,98.0756L 575.962,98.1791L 573.442,94.0184 Z M 579.665,111.853L 582.501,98.9684L 577.308,98.865L 579.665,111.853 Z M 578.874,111.063L 570.715,98.7591L 576.628,98.877L 578.874,111.063 Z M 580.484,111.063L 589.093,99.0934L 583.18,98.9756L 580.484,111.063 Z "/>
	<radialGradient id="SVGID_Fill21_" cx="761.239" cy="55.692" r="9.89542" gradientUnits="userSpaceOnUse" gradientTransform="rotate(2.921762 761.239441 55.691986)">
		<stop offset="0" stop-color="#FCFFFF" stop-opacity="1"/>
		<stop offset="1" stop-color="#00DCFC" stop-opacity="1"/>
	</radialGradient>
	<path fill="url(#SVGID_Fill21_)" fill-rule="evenodd" stroke-width="1.00014" stroke-linejoin="round" stroke="#000000" stroke-opacity="1" d="M 757.983,52.4588L 759.188,47.9146L 754.191,49.0463L 757.983,52.4588 Z M 764.223,51.0459L 765.429,46.5017L 760.431,47.6334L 764.223,51.0459 Z M 759.987,48.2094L 758.782,52.7536L 763.78,51.622L 759.987,48.2094 Z M 766.177,46.7811L 764.971,51.3253L 769.969,50.1937L 766.177,46.7811 Z M 753.675,49.6118L 752.47,54.156L 757.467,53.0244L 753.675,49.6118 Z M 765.552,65.3253L 763.979,52.2348L 758.981,53.3664L 765.552,65.3253 Z M 764.534,64.7517L 752.645,54.8277L 758.336,53.5392L 764.534,64.7517 Z M 766.073,64.3701L 770.321,50.7922L 764.63,52.0807L 766.073,64.3701 Z "/>
	<radialGradient id="SVGID_Fill22_" cx="786.592" cy="202.157" r="9.91367" gradientUnits="userSpaceOnUse" gradientTransform="rotate(1.127868 786.591980 202.156876)">
		<stop offset="0" stop-color="#FCFFFF" stop-opacity="1"/>
		<stop offset="0.599998" stop-color="#9A1FD2" stop-opacity="1"/>
	</radialGradient>
	<path fill="url(#SVGID_Fill22_)" fill-rule="evenodd" stroke-width="1.00014" stroke-linejoin="round" stroke="#000000" stroke-opacity="1" d="M 783.833,197.241L 787.664,193.945L 782.678,192.662L 783.833,197.241 Z M 790.059,198.844L 793.889,195.548L 788.903,194.265L 790.059,198.844 Z M 788.168,194.552L 784.338,197.848L 789.324,199.131L 788.168,194.552 Z M 794.359,196.119L 790.529,199.415L 795.515,200.698L 794.359,196.119 Z M 781.887,192.908L 778.057,196.204L 783.043,197.487L 781.887,192.908 Z M 782.415,211.491L 789.118,199.738L 784.132,198.454L 782.415,211.491 Z M 781.894,210.55L 777.794,196.849L 783.472,198.311L 781.894,210.55 Z M 783.45,210.918L 795.449,201.361L 789.771,199.899L 783.45,210.918 Z "/>
	<radialGradient id="SVGID_Fill23_" cx="680.556" cy="75.3474" r="12.1969" gradientUnits="userSpaceOnUse" gradientTransform="rotate(117.850037 680.555908 75.347382)">
		<stop offset="0" stop-color="#FCFFFF" stop-opacity="1"/>
		<stop offset="1" stop-color="#FF03BE" stop-opacity="1"/>
	</radialGradient>
	<path fill="url(#SVGID_Fill23_)" fill-rule="evenodd" stroke-width="1.00014" stroke-linejoin="round" stroke="#000000" stroke-opacity="1" d="M 675.494,76.7011L 672.509,73.0313L 670.824,78.1102L 675.494,76.7011 Z M 677.599,70.3593L 674.614,66.6894L 672.928,71.7683L 677.599,70.3593 Z M 673.157,72.4915L 676.142,76.1613L 677.827,71.0825L 673.157,72.4915 Z M 675.222,66.1862L 678.208,69.856L 679.893,64.7771L 675.222,66.1862 Z M 671.006,78.8911L 673.991,82.5609L 675.677,77.482L 671.006,78.8911 Z M 689.625,77.3546L 678.417,71.2565L 676.731,76.3354L 689.625,77.3546 Z M 688.643,77.9291L 674.615,82.7899L 676.535,77.0068L 688.643,77.9291 Z M 689.135,76.3463L 680.55,64.8079L 678.631,70.5911L 689.135,76.3463 Z "/>
	<path fill="none" fill-rule="evenodd" stroke-width="1.00014" stroke-linejoin="round" stroke="#000000" stroke-opacity="1" d="M 688.933,146.492L 684.84,146.753L 687.385,149.758L 688.933,146.492 Z M 685.756,142.74L 681.662,143.001L 684.207,146.006L 685.756,142.74 Z M 684.82,146.163L 688.914,145.902L 686.369,142.897L 684.82,146.163 Z M 681.647,142.448L 685.74,142.187L 683.196,139.182L 681.647,142.448 Z M 688.013,149.964L 692.106,149.704L 689.562,146.699L 688.013,149.964 Z M 696.958,138.578L 686.804,142.626L 689.349,145.631L 696.958,138.578 Z M 696.821,139.375L 692.597,149.434L 689.699,146.013L 696.821,139.375 Z M 696.01,138.458L 683.569,138.814L 686.467,142.236L 696.01,138.458 Z "/>
	<radialGradient id="SVGID_Fill24_" cx="788.793" cy="135.579" r="8.23296" gradientUnits="userSpaceOnUse" gradientTransform="rotate(-13.260079 788.793396 135.578842)">
		<stop offset="0" stop-color="#FCFFFF" stop-opacity="1"/>
		<stop offset="1" stop-color="#FF03BE" stop-opacity="1"/>
	</radialGradient>
	<path fill="url(#SVGID_Fill24_)" fill-rule="evenodd" stroke-width="1.00014" stroke-linejoin="round" stroke="#000000" stroke-opacity="1" d="M 789.095,137.915L 785.212,139.285L 788.43,141.489L 789.095,137.915 Z M 785.078,135.164L 781.195,136.533L 784.412,138.737L 785.078,135.164 Z M 785.044,138.721L 788.927,137.351L 785.709,135.148L 785.044,138.721 Z M 781.04,136.004L 784.923,134.634L 781.705,132.43L 781.04,136.004 Z M 789.088,141.516L 792.971,140.147L 789.754,137.943L 789.088,141.516 Z M 794.828,128.088L 786.06,134.767L 789.277,136.971L 794.828,128.088 Z M 794.899,128.895L 793.376,139.753L 789.712,137.244L 794.899,128.895 Z M 793.884,128.231L 781.972,131.973L 785.636,134.483L 793.884,128.231 Z "/>
	<path fill="none" fill-rule="evenodd" stroke-width="1.00014" stroke-linejoin="round" stroke="#000000" stroke-opacity="1" d="M 595.824,68.698L 591.73,68.9587L 594.275,71.9635L 595.824,68.698 Z M 592.646,64.9459L 588.552,65.2066L 591.097,68.2114L 592.646,64.9459 Z M 591.711,68.3684L 595.804,68.1078L 593.26,65.1029L 591.711,68.3684 Z M 588.537,64.6533L 592.631,64.3927L 590.086,61.3878L 588.537,64.6533 Z M 594.903,72.17L 598.997,71.9094L 596.452,68.9044L 594.903,72.17 Z M 603.848,60.7831L 593.694,64.8313L 596.239,67.8362L 603.848,60.7831 Z M 603.711,61.5809L 599.487,71.6398L 596.589,68.2183L 603.711,61.5809 Z M 602.901,60.6633L 590.459,61.0198L 593.357,64.4414L 602.901,60.6633 Z "/>
	<path fill="none" fill-rule="evenodd" stroke-width="1.00014" stroke-linejoin="round" stroke="#000000" stroke-opacity="1" d="M 548.607,89.8277L 544.514,90.0883L 547.059,93.0932L 548.607,89.8277 Z M 545.43,86.0756L 541.336,86.3362L 543.881,89.3411L 545.43,86.0756 Z M 544.494,89.4981L 548.588,89.2375L 546.043,86.2326L 544.494,89.4981 Z M 541.321,85.783L 545.414,85.5224L 542.87,82.5175L 541.321,85.783 Z M 547.687,93.2997L 551.78,93.0391L 549.236,90.0341L 547.687,93.2997 Z M 556.632,81.9128L 546.478,85.961L 549.023,88.9659L 556.632,81.9128 Z M 556.495,82.7106L 552.271,92.7695L 549.373,89.348L 556.495,82.7106 Z M 555.684,81.793L 543.243,82.1496L 546.141,85.5711L 555.684,81.793 Z "/>
	<path fill="none" fill-rule="evenodd" stroke-width="1.00014" stroke-linejoin="round" stroke="#000000" stroke-opacity="1" d="M 552.584,63.2279L 552.017,61.2187L 550.2,62.9924L 552.584,63.2279 Z M 554.852,61.0131L 554.286,59.0038L 552.469,60.7776L 554.852,61.0131 Z M 552.419,61.1111L 552.986,63.1205L 554.803,61.3467L 552.419,61.1111 Z M 554.663,58.9045L 555.23,60.9138L 557.047,59.1401L 554.663,58.9045 Z M 550.118,63.3415L 550.685,65.3509L 552.502,63.5771L 550.118,63.3415 Z M 558.766,65.94L 555.03,61.5196L 553.213,63.2933L 558.766,65.94 Z M 558.207,66.0037L 550.916,65.552L 552.985,63.5323L 558.207,66.0037 Z M 558.759,65.4453L 557.334,59.2664L 555.265,61.2861L 558.759,65.4453 Z "/>
	<path fill="none" fill-rule="evenodd" stroke-width="1.00014" stroke-linejoin="round" stroke="#000000" stroke-opacity="1" d="M 891.76,166.105L 893.99,165.361L 891.689,164.041L 891.76,166.105 Z M 894.634,167.754L 896.864,167.01L 894.563,165.69L 894.634,167.754 Z M 894.172,165.691L 891.941,166.434L 894.243,167.755L 894.172,165.691 Z M 897.033,167.319L 894.802,168.063L 897.104,169.383L 897.033,167.319 Z M 891.275,164.016L 889.045,164.76L 891.346,166.08L 891.275,164.016 Z M 889.527,171.729L 894.077,167.971L 891.775,166.65L 889.527,171.729 Z M 889.374,171.26L 888.846,164.983L 891.467,166.486L 889.374,171.26 Z M 890.096,171.659L 897,169.645L 894.379,168.141L 890.096,171.659 Z "/>
	<path fill="none" fill-rule="evenodd" stroke-width="1.00014" stroke-linejoin="round" stroke="#000000" stroke-opacity="1" d="M 674.108,22.659L 676.235,21.7196L 673.788,20.6113L 674.108,22.659 Z M 677.163,24.043L 679.29,23.1036L 676.843,21.9953L 677.163,24.043 Z M 676.455,22.0312L 674.328,22.9706L 676.774,24.079L 676.455,22.0312 Z M 679.495,23.3963L 677.368,24.3357L 679.814,25.444L 679.495,23.3963 Z M 673.374,20.6237L 671.247,21.5631L 673.694,22.6715L 673.374,20.6237 Z M 672.567,28.457L 676.635,24.3091L 674.189,23.2007L 672.567,28.457 Z M 672.358,28.004L 671.077,21.803L 673.863,23.065L 672.358,28.004 Z M 673.123,28.3359L 679.742,25.7136L 676.956,24.4516L 673.123,28.3359 Z "/>
	<path fill="none" fill-rule="evenodd" stroke-width="1.00014" stroke-linejoin="round" stroke="#000000" stroke-opacity="1" d="M 865.991,83.2645L 867.215,81.497L 864.467,81.6616L 865.991,83.2645 Z M 869.423,83.0591L 870.647,81.2917L 867.899,81.4561L 869.423,83.0591 Z M 867.592,81.6631L 866.368,83.4306L 869.117,83.2661L 867.592,81.6631 Z M 871,81.4485L 869.776,83.216L 872.524,83.0515L 871,81.4485 Z M 864.124,81.86L 862.9,83.6275L 865.648,83.463L 864.124,81.86 Z M 868.238,88.9131L 869.14,83.5257L 866.391,83.6902L 868.238,88.9131 Z M 867.784,88.6213L 862.903,83.9095L 866.033,83.7221L 867.784,88.6213 Z M 868.634,88.5573L 872.628,83.3142L 869.499,83.5015L 868.634,88.5573 Z "/>
	<path fill="none" fill-rule="evenodd" stroke-width="1.00014" stroke-linejoin="round" stroke="#000000" stroke-opacity="1" d="M 616.543,95.4207L 614.522,96.5194L 617.072,97.4374L 616.543,95.4207 Z M 613.359,94.2744L 611.339,95.373L 613.888,96.291L 613.359,94.2744 Z M 614.271,96.2256L 616.292,95.127L 613.742,94.2089L 614.271,96.2256 Z M 611.105,95.0969L 613.125,93.9983L 610.575,93.0803L 611.105,95.0969 Z M 617.483,97.3934L 619.503,96.2948L 616.954,95.3767L 617.483,97.3934 Z M 617.479,89.5242L 613.857,93.969L 616.406,94.887L 617.479,89.5242 Z M 617.734,89.9598L 619.648,96.0428L 616.745,94.9974L 617.734,89.9598 Z M 616.938,89.6874L 610.619,92.8061L 613.522,93.8514L 616.938,89.6874 Z "/>
</svg>
